<?xml version="1.0" standalone="no"?>
<!DOCTYPE svg PUBLIC "-//W3C//DTD SVG 1.1//EN" "http://www.w3.org/Graphics/SVG/1.1/DTD/svg11.dtd" >
<svg>
<metadata>
Created by FontForge 20120731 at Sat Oct 20 19:25:20 2012
 By 🚀
Copyright (c) 2012, Tristen Brown &#60;tristen.brown@gmail.com&#62;, with Reserved Font Name: 'Forsythe'.

This Font Software is licensed under the SIL Open Font License, Version 1.0.
The license available with a FAQ at:
http://scripts.sil.org/OFL

September 2012
</metadata>
<defs>
<font id="forsythe-medium" horiz-adv-x="322" >
  <font-face 
    font-family="Forsythe"
    font-weight="500"
    font-stretch="normal"
    units-per-em="1000"
    panose-1="2 0 6 3 0 0 0 0 0 0"
    ascent="800"
    descent="-200"
    x-height="600"
    cap-height="600"
    bbox="0 -344 450 600"
    underline-thickness="50"
    underline-position="-100"
    stemh="96"
    stemv="96"
    unicode-range="U+0020-007E"
  />
<missing-glyph horiz-adv-x="500" 
d="M50 0v533h400v-533h-400zM100 50h300v433h-300v-433z" />
    <glyph glyph-name=".notdef" horiz-adv-x="500" 
d="M50 0v533h400v-533h-400zM100 50h300v433h-300v-433z" />
    <glyph glyph-name="space" unicode=" " horiz-adv-x="160" 
 />
    <glyph glyph-name="exclam" unicode="!" horiz-adv-x="146" 
d="M25 600h96v-656h-96v656zM25 -104h96v-96h-96v96z" />
    <glyph glyph-name="quotedbl" unicode="&#x22;" 
d="M25 600h109v-200h-109v200zM188 600h109v-200h-109v200z" />
    <glyph glyph-name="numbersign" unicode="#" horiz-adv-x="418" 
d="M73 600h96v-256h80v256h96v-256h48v-96h-48v-96h48v-96h-48v-256h-96v256h-80v-256h-96v256h-48v96h48v96h-48v96h48v256zM169 248v-96h80v96h-80z" />
    <glyph glyph-name="dollar" unicode="$" horiz-adv-x="338" 
d="M121 600h96v-80h32c31 -8 64 -32 64 -64v-96h-96v35c0 29 0 29 -32 29h-32c-32 0 -32 0 -32 -32v-112c0 -32 0 -32 32 -32h96c32 0 64 -32 64 -64v-240c0 -32 -32 -64 -64 -64h-32v-80h-96v80h-32c-32 0 -64 32 -64 64v96h96v-32c0 -32 0.1875 -32 30 -32h34
c32 0 32 0 32 32v112c0 32 0 32 -32 32h-96c-32 0 -64 32 -64 64v240c0 32 32 64 64 64h32v80z" />
    <glyph glyph-name="percent" unicode="%" 
d="M25 600h96v-176h-96v176zM201 600h96l-176 -800h-96zM201 -24h96v-176h-96v176z" />
    <glyph glyph-name="ampersand" unicode="&#x26;" horiz-adv-x="386" 
d="M89 600h176v-96h-113c-31 0 -31 0 -31 -32v-224h96v48h96v-48h48v-96h-48v-288c0 -32 -32 -64 -64 -64h-160c-32 0 -64 32 -64 64v288l64 32l-64 64v288c0 32 32 64 64 64zM121 152v-222.062c0 -33.9258 0 -33.9375 32 -33.9375h32c32 0 32 0 32 32v224h-96z" />
    <glyph glyph-name="quotesingle" unicode="'" horiz-adv-x="158" 
d="M25 600h109v-200h-109v200z" />
    <glyph glyph-name="parenleft" unicode="(" horiz-adv-x="242" 
d="M89 600h128.001v-96h-64.4375h-0.517578c-30.8037 0 -31.0459 -0.171875 -31.0459 -31.2871v-0.712891v-544c0 -32 0.0136719 -32 32.0938 -32h63.9062v-96h-128c-32 0 -64 32 -64 64v675v0.00292969c0 28.999 32.001 60.9971 64 60.9971z" />
    <glyph glyph-name="parenright" unicode=")" horiz-adv-x="242" 
d="M153 600c31.999 0 63.998 -31.998 63.998 -60.9971v-0.00292969l0.00195312 -675c0 -32 -32 -64 -64 -64h-128v96h64c31.752 0 31.998 0 31.998 32.7256v0.773438v540.937v0.774414c0 32.79 -0.246094 32.79 -31.998 32.79l-64 -0.000976562v96z" />
    <glyph glyph-name="asterisk" unicode="*" horiz-adv-x="274" 
d="M105 600h65l-1 -64l48 32l32 -48l-48 -32l48 -32l-32 -48l-48 32l1 -64h-65v64l-48 -32l-32 48l48 32l-48 32l32 48l48 -32v64z" />
    <glyph glyph-name="plus" unicode="+" horiz-adv-x="402" 
d="M157 380h88v-132h132v-88h-132v-132h-88v132h-132v88h132v132z" />
    <glyph glyph-name="comma" unicode="," horiz-adv-x="194" 
d="M169 -200v-108l-144 -36v108z" />
    <glyph glyph-name="hyphen" unicode="-" 
d="M25 252h272v-96h-272v96z" />
    <glyph glyph-name="period" unicode="." horiz-adv-x="146" 
d="M25 -104h96v-96h-96v96z" />
    <glyph glyph-name="slash" unicode="/" 
d="M201 600h96l-176 -800h-96z" />
    <glyph glyph-name="zero" unicode="0" 
d="M89 600h144c32.0254 0 64 -32 64 -64v-672c0 -32 -31.9746 -64 -64 -64h-144c-32.0254 0 -64 32 -64 64v672c0 32 31.9746 64 64 64zM153 504c-32 0 -32 -0.00195312 -32 -32v-544c0 -31.998 0 -32 31.9883 -32h0.0117188h16h0.0117188
c31.9883 0 31.9883 0.00195312 31.9883 32v544c0 31.998 0 32 -32 32h-16z" />
    <glyph glyph-name="one" unicode="1" horiz-adv-x="194" 
d="M25 600h48h96v-800h-96v704h-48v96z" />
    <glyph glyph-name="two" unicode="2" horiz-adv-x="290" 
d="M25 600h176.094c31.957 0 63.9062 -32 63.9062 -64v-328c0 -32 -31.8242 -56 -63.7812 -56h-48.1875c-31.957 0 -31.9531 0 -32 -32l-0.15625 -184c0.160156 -40 0.196289 -40 32.1562 -40h111.969l-0.25 -96h-175.719c-31.957 0 -63.6855 40 -63.7188 72l-0.3125 312
c0 32 31.9492 64 63.9062 64h48.0625c30.6777 0 32.0049 0 32.0049 28.3203c0 1.17676 -0.00195312 2.40234 -0.00488281 3.67969l-0.21875 104v96v0.757812c0 23.2402 -0.167969 23.2422 -31.7656 23.2422h-0.015625h-111.969v96z" />
    <glyph glyph-name="three" unicode="3" horiz-adv-x="290" 
d="M25 600h176c32 0 64 -32 64 -64v-288l-64 -64l64 -32v-288c0 -32 -32 -64 -64 -64h-176v96h144v256h-144v96h144v256h-144v96z" />
    <glyph glyph-name="four" unicode="4" 
d="M25 600h96v-352h80v352h96v-800h-96v352h-176v448z" />
    <glyph glyph-name="five" unicode="5" horiz-adv-x="290" 
d="M25 600h240v-96h-143.719v-128v-96c0 -32 0.00683594 -32 31.9688 -32h47.5625c31.9648 0 63.9375 -32 63.9375 -64v-320c0 -32 -31.9727 -64 -63.9375 -64h-175.812v96h112.156c31.9102 0 31.9375 0 31.9375 31.8359v0.164062v32v96v64v0.164062
c0 31.835 -0.0273438 31.8359 -31.9316 31.8359h-0.00585938h-48.2188c-31.9648 0 -63.9375 32 -63.9375 64v384z" />
    <glyph glyph-name="six" unicode="6" 
d="M25 600h95.7188l0.28125 -352h112c32 0 64 -32 64 -64v-320c0 -32 -31.9844 -64 -63.9688 -64h-144.031c-32 0 -64 32 -64 64v736zM147.312 152c-26.3535 -0.15918 -26.374 -2.41113 -26.374 -33v-191c0 -31.8252 0.015625 -32 31.4756 -32h0.524414h15.9688
c31.9531 0 31.9688 0 31.9688 31.9062v0.09375v193v0.96582c0 30.0332 -0.166016 30.0342 -31.875 30.0342h-16.0625c-1.33301 0 -2.6084 0.00488281 -3.83105 0.00488281c-0.611328 0 -1.20898 -0.000976562 -1.79492 -0.00488281z" />
    <glyph glyph-name="seven" unicode="7" horiz-adv-x="292" 
d="M0 600h267v-800h-95v706h-172v94z" />
    <glyph glyph-name="eight" unicode="8" 
d="M89 600h144c31.9932 0 64 -32 64 -64l-0.5 -288l-63.5 -64l64 -32v-288c0 -32 -32.0068 -64 -64 -64h-144c-32 0 -64 32 -64 64v288l64 32l-64 64v288c0.887695 31.9873 32 64 64 64zM153 504c-32 0 -32 0 -32 -32v-191c0 -32.6289 0.00683594 -33 32 -33h15
c33 0 33 0 33 31v193c0 32 -0.00683594 32 -32 32h-16zM153 152c-32 0 -32 0 -32 -33v-191c0 -32 0 -32 32 -32h16c31.9941 0 32 0 32 32v193c0 31 0 31 -33 31h-15z" />
    <glyph glyph-name="nine" unicode="9" 
d="M88.9688 600h144.031c32 0 64 -32 64 -64v-736h-95.7188l-0.28125 352h-112c-32 0 -64 32 -64 64v320c0 32 31.9844 64 63.9688 64zM147.469 504c-26.334 -0.117188 -26.3428 -1.99707 -26.3428 -31.9336v-0.0664062v-193v-0.96582
c0 -30.0332 0.166016 -30.0342 31.875 -30.0342h16.0625h0.119141c31.8652 0 31.8809 0.412109 31.8809 33v191c0 31.8252 -0.015625 32 -31.4756 32h-0.524414h-15.9688c-1.33301 0 -2.6084 0.00390625 -3.83105 0.00390625
c-0.611328 0 -1.20898 -0.000976562 -1.79492 -0.00390625z" />
    <glyph glyph-name="colon" unicode=":" horiz-adv-x="146" 
d="M25 440h96v-176h-96v176zM25 136h96v-176h-96v176z" />
    <glyph glyph-name="semicolon" unicode=";" horiz-adv-x="146" 
d="M25 440h96v-176h-96v176zM25 136h96v-336h-96v336z" />
    <glyph glyph-name="less" unicode="&#x3c;" horiz-adv-x="370" 
d="M345 582v-144l-240 -240l240 -240v-144l-320 336v96z" />
    <glyph glyph-name="equal" unicode="=" 
d="M25 348h272v-96h-272v96zM25 156h272v-96h-272v96z" />
    <glyph glyph-name="greater" unicode="&#x3e;" horiz-adv-x="370" 
d="M25 583l320 -336v-96l-320 -336v144l240 240l-240 240v144z" />
    <glyph glyph-name="question" unicode="?" horiz-adv-x="306" 
d="M25 600h192c31.9648 0 64 -32 64 -64v-328c0 -32 -32.0352 -56 -64 -56h-64c-31.9648 0 -31.9531 0 -32 -32v-176h-96v238c0 34 32 66 64 66h64c31.9619 0 32 0 32 32v200c0 23.998 -0.0380859 24 -31.9844 24h-0.015625h-128v96zM25 -104h96v-96h-96v96z" />
    <glyph glyph-name="at" unicode="@" horiz-adv-x="450" 
d="M88.8438 600h271.312c31.9482 0 64.8438 -32 64.8438 -64v-496c0 -32 -31.9971 -64 -64.7188 -64h-127.219c-31.9248 0 -63.8438 32 -63.8438 64l-0.5625 272v0.0996094c0 31.9668 32.377 63.9004 63.8438 63.9004h95.7188v96c-2.26758 31.7402 0.525391 32 -31.3613 32
h-0.544922h-143.625h-0.737305c-30.71 0 -31.2012 -0.230469 -31.2012 -29.0537c0 -0.950195 0.000976562 -1.93262 0.000976562 -2.94629v-544c0 -31.998 0.222656 -32 31.9258 -32h0.0117188h272.312l-1 -96h-335.156c-31.9502 0 -63.8438 32 -63.8438 64v672
c0 32 31.8936 64 63.8438 64zM290.656 280c-23.9404 -0.104492 -25.6943 -1.63672 -25.6943 -23.6914c0 -2.49707 0.0224609 -5.25781 0.0380859 -8.30859l0.5625 -144c0.12793 -31.999 0 -32 15.9971 -32h0.00292969h32h0.00292969
c14.0215 0 15.3242 0.000976562 15.3242 21.5615c0 3.0332 -0.0263672 6.49219 -0.0458984 10.4385l-0.5625 144c-0.126953 31.7539 0.516602 32 -31.2002 32h-0.737305c-1.35254 0 -2.64062 0.00390625 -3.87402 0.00390625
c-0.617188 0 -1.22168 -0.000976562 -1.81348 -0.00390625z" />
    <glyph glyph-name="A" unicode="A" horiz-adv-x="404" 
d="M154 600h96l144 -800h-96l-38.5 240h-115l-38.5 -240h-96zM202 368l-45 -248h90z" />
    <glyph glyph-name="B" unicode="B" horiz-adv-x="370" 
d="M25 600h256.031c31.9932 0 63.9688 -32 63.9688 -64v-288l-64 -64l64 -32v-288c0 -32 -32.0693 -64 -64.0625 -64h-255.938v800zM147.281 504c-24.0605 -0.105469 -26.3682 -1.6543 -26.3682 -24.0928c0 -2.39062 0.0263672 -5.01855 0.0556641 -7.90723v-191
c0 -32.6289 0.00683594 -33 32 -33h63.75c31.9102 0 32.2188 0 32.2188 31v193c0 32 -0.00683594 32 -32 32h-63.9688c-1.34668 0 -2.63672 0.00390625 -3.87305 0.00390625c-0.618164 0 -1.22266 -0.000976562 -1.81445 -0.00390625zM147.281 151.999
c-26.0459 -0.118164 -26.3125 -1.98242 -26.3125 -31.1328v-1.86719v-191v-1.33496c0 -30.665 0.223633 -30.665 32 -30.665h63.9688c31.9932 0 32 0 32 32v193c0 31 -0.225586 31 -32.2188 31h-63.75c-1.34668 0 -2.6377 0.00390625 -3.87402 0.00390625
c-0.618164 0 -1.22266 -0.000976563 -1.81348 -0.00390625z" />
    <glyph glyph-name="C" unicode="C" horiz-adv-x="338" 
d="M249.001 600c31.9873 0 63.999 -32.0137 63.999 -64.001v-96h-96v64l-64 -0.09375c-32 0 -32 -0.00390625 -32 -32v-543.906c0 -31.6992 0 -32 31.1074 -32h0.892578h64v63.9687l96 0.03125v-96c0 -32 -32 -64 -64 -64h-160c-32 0.000976562 -64 32 -64 64v672
c0 31.9365 31.873 63.876 63.8096 63.876h0.191406z" />
    <glyph glyph-name="D" unicode="D" horiz-adv-x="354" 
d="M25 600l239.947 -0.000976562c32.0254 0 64.0527 -32 64.0527 -64v-671.999c0 -32 -32.0273 -64 -64.0527 -64h-239.947v800zM152.869 503.999c-30.2676 -0.000976563 -32.0596 -0.000976563 -32.0596 -21.9248c0 -2.94434 0.0322266 -6.28418 0.0322266 -10.0732
v-543.999c0 -31.999 0 -32 29.6465 -32h0.00585938h50.6367h0.0117188c31.7793 0 31.7793 0.00195312 31.7793 32v543.999c0 0.981445 0.000976562 1.93262 0.000976562 2.85449c0 28.9814 -0.478516 29.1455 -31.5039 29.1455h-0.524414z" />
    <glyph glyph-name="E" unicode="E" horiz-adv-x="306" 
d="M25 600h256v-96h-160v-256h160v-96h-160v-256h160v-96h-256v800z" />
    <glyph glyph-name="F" unicode="F" horiz-adv-x="306" 
d="M25 600h256v-96h-160v-256h160v-96h-160v-352h-96v800z" />
    <glyph glyph-name="G" unicode="G" horiz-adv-x="354" 
d="M265.001 600c31.9893 0 63.999 -32.0107 63.999 -64.001v-96h-96v64l-80 -0.09375c-32 0 -32 -0.00390625 -32 -32v-543.906c0 -31.6992 0 -32 31.1074 -32h0.892578h80v255.969l-64 0.03125v96h160v-384c0 -32.001 -32 -64 -64 -64h-176
c-32 0.000976562 -64 31.999 -64 64v672c0 31.9375 31.873 63.876 63.8096 63.876h0.191406z" />
    <glyph glyph-name="H" unicode="H" horiz-adv-x="354" 
d="M25 600h96v-352h112v352h96.001v-800h-96.001v352h-112v-352h-96v800z" />
    <glyph glyph-name="I" unicode="I" horiz-adv-x="146" 
d="M25 600h96v-800h-96v800z" />
    <glyph glyph-name="J" unicode="J" 
d="M201.001 600h95.999v-736c0 -32 -32 -64 -64 -64h-144c-32.0254 0 -64 32 -64 64v256h96v-192c0 -31.998 0.208008 -32 31.9883 -32h0.0117188h18.5h0.00585938c29.3457 0 29.4951 0.000976562 29.4951 31.0332v0.966797v672z" />
    <glyph glyph-name="K" unicode="K" horiz-adv-x="370" 
d="M25 600h96v-336c0 -16 0 -16 16 -16h48c16 0 40 0 40 16l23.9971 336h96l-31.9971 -352l-32 -64l64 -32l-0.496094 -352h-96l0.496094 336c0 16 0 16 -16 16h-96.0029c-16 0 -16 0 -16 -16l-0.496094 -336h-95.501v800z" />
    <glyph glyph-name="L" unicode="L" horiz-adv-x="259" 
d="M25 600h96v-704h128v-96h-224v800z" />
    <glyph glyph-name="M" unicode="M" horiz-adv-x="434" 
d="M25 -201v800h64l128.085 -384l127.916 384h63.998v-800h-95.999l0.00292969 480l-96.001 -272l-96 272l-0.00195312 -480h-96z" />
    <glyph glyph-name="N" unicode="N" horiz-adv-x="402" 
d="M25 600h96.0938l159.875 -544v544h96.0312v-800h-96.0312l-160.281 544l0.34375 -544h-96.0312v800z" />
    <glyph glyph-name="O" unicode="O" horiz-adv-x="370" 
d="M89 600h192c32.0254 0 64 -32 64 -64v-672c0 -32 -32 -64 -64 -64h-192c-32 0 -64 32 -64 64v672c0 32 32 64 64 64zM153 504c-32 0 -32 0 -32 -32v-544c0 -32 0 -32 32 -32h64h0.011639c31.7804 0 31.9884 0.00195265 31.9884 32v544c0 32 0 32 -32 32h-64z" />
    <glyph glyph-name="P" unicode="P" horiz-adv-x="354" 
d="M25 600h240.031c31.9678 0 63.9688 -31.999 63.9688 -64v-320c0 -32 -32 -64 -64 -64h-144l-0.28125 -352h-95.7188v800zM147.312 504c-26.3545 -0.116211 -26.375 -1.99902 -26.375 -32v-191c0 -32.999 0.0673828 -33 32 -33h48.0625
c31.7086 0 31.875 0.000956174 31.875 30.0343l-1.8712e-05 0.965701v193l1.5e-08 0.0936128c0 31.9064 -0.0155945 31.9064 -31.9688 31.9064h-47.9688c-1.33268 0 -2.60764 0.00347222 -3.83008 0.00347222c-0.61122 0 -1.20931 -0.000868055 -1.79492 -0.00347222z" />
    <glyph glyph-name="Q" unicode="Q" horiz-adv-x="354" 
d="M89 600h112h64c32.0254 0 64 -32 64 -64v-672c0 -32 -31.9746 -64 -64 -64h-64h-112c-32.0254 0 -64 32 -64 64v672c0 32 31.9746 64 64 64zM147.281 504c-25.8389 -0.112305 -26.2822 -1.87402 -26.2822 -29.0137
c0 -0.962891 0.000976562 -1.95801 0.000976562 -2.98535v-544c0 -31.998 0.209961 -32 31.9883 -32h0.0117188h48h0.0117188c31.7803 0 31.9883 0.00195313 31.9883 32v112h-48v96h48v336c0 1.03125 0.000976562 2.0293 0.000976562 2.99512
c0 28.7734 -0.5 29.0039 -31.2617 29.0039h-0.739258h-48c-1.35645 0 -2.65332 0.00390625 -3.89551 0.00390625c-0.621094 0 -1.22852 -0.000976562 -1.82324 -0.00390625z" />
    <glyph glyph-name="R" unicode="R" horiz-adv-x="370" 
d="M25 600h256.031c31.9844 0 63.9688 -32 63.9688 -64l-0.3125 -288l-63.9688 -64l64.1875 -32l-0.3125 -352h-95.9375l0.3125 321c0.000976562 0.779297 0.00195312 1.53906 0.00195312 2.2793c0 28.7207 -1.04004 28.7207 -32.2207 28.7207h-63.7188
c-29.3916 0 -32.0547 0 -32.0547 -24.8564c0 -2.46289 0.0253906 -5.16895 0.0546875 -8.14355l-0.3125 -319h-95.7188v800zM138.531 504.219c-1.27246 -0.0234375 -2.46973 -0.09375 -3.59375 -0.21875c-13.4814 -1.5 -14 -8 -14 -32v-191c0 -32.6289 0.015625 -33 32 -33
h81.9688c13.4814 1.42969 13.9688 8.11914 13.9688 31v193v0.09375c0 31.9062 -0.015625 31.9062 -31.9688 31.9062h-63.9688c-5.34473 0 -9.5752 0.229492 -13.1357 0.229492c-0.433594 0 -0.856445 -0.00292969 -1.27051 -0.0107422z" />
    <glyph glyph-name="S" unicode="S" horiz-adv-x="338" 
d="M88.9375 600h159.812c31.9648 0 63.9375 -32 63.9375 -64l0.3125 -96h-95.9062v32.25c-0.105469 31.75 -0.09375 31.75 -32.0938 31.75h-31.8125c-31.9619 0 -31.9688 0 -31.9688 -32v-96v-96c0 -32 0.00683594 -32 31.9688 -32h95.5625
c31.9648 0 63.9375 -32 63.9375 -64v-320c0 -32 -31.9727 -64 -63.9375 -64h-159.812c-31.9648 0 -63.9375 32 -63.9375 64l0.3125 96h95.9062l-0.21875 -32c0 -32 0 -31.999 33.25 -32h30.9062c31.9648 0 31.9688 0 31.9688 32v32v96v64
c0 31.999 -0.00390625 32 -31.9629 32h-0.00585938h-96.2188c-31.9648 0 -63.9375 32 -63.9375 64v320c0 32 31.9727 64 63.9375 64z" />
    <glyph glyph-name="T" unicode="T" horiz-adv-x="340" 
d="M10 600h320v-96h-112v-704h-96v704h-112v96z" />
    <glyph glyph-name="U" unicode="U" horiz-adv-x="354" 
d="M25 600h96v-672c0 -31.998 0.20991 -32 31.9884 -32h0.0116383h48c32 0 32 0 32 32v672h96v-736c0 -32 -32 -64 -64 -64h-176c-32 0 -64 32 -64 64v736z" />
    <glyph glyph-name="V" unicode="V" horiz-adv-x="424" 
d="M20 600h96l96 -600l96 600h96l-144 -800h-96z" />
    <glyph glyph-name="W" unicode="W" horiz-adv-x="402" 
d="M25.001 600h96l0.00195313 -528l80 240l80 -240l-0.00195313 528h95.999v-800h-63.999l-111.915 304l-112.085 -304h-64v800z" />
    <glyph glyph-name="X" unicode="X" horiz-adv-x="402" 
d="M25 600h96l80 -336l80 336h96l-96 -416l96 -384h-96l-80 288l-80 -288h-96l96 384z" />
    <glyph glyph-name="Y" unicode="Y" horiz-adv-x="384" 
d="M0 600h96l96 -352l96 352h96l-144 -480v-64v-256h-96v256v64z" />
    <glyph glyph-name="Z" unicode="Z" horiz-adv-x="338" 
d="M25 600h192h96l-169 -704h169v-96h-192h-96l169 704h-169v96z" />
    <glyph glyph-name="bracketleft" unicode="[" horiz-adv-x="242" 
d="M25 600h192v-96h-96v-608h96v-96h-192v800z" />
    <glyph glyph-name="backslash" unicode="\" 
d="M25 600h96l176 -800h-96z" />
    <glyph glyph-name="bracketright" unicode="]" horiz-adv-x="241" 
d="M216.999 600v-800h-191.999v96h95.999v608h-95.999v96h191.999z" />
    <glyph glyph-name="asciicircum" unicode="^" horiz-adv-x="375" 
d="M150 600h75l125 -212h-75l-88 137l-87 -137h-75z" />
    <glyph glyph-name="underscore" unicode="_" horiz-adv-x="450" 
d="M25 -104h400v-96h-400v96z" />
    <glyph glyph-name="grave" unicode="`" horiz-adv-x="194" 
d="M25 600h96l48 -176h-96z" />
    <glyph glyph-name="a" unicode="a" horiz-adv-x="404" 
d="M154 600h96l144 -800h-96l-38.5 240h-115l-38.5 -240h-96zM202 368l-45 -248h90z" />
    <glyph glyph-name="b" unicode="b" horiz-adv-x="370" 
d="M25 600h256.031c31.9932 0 63.9688 -32 63.9688 -64v-288l-64 -64l64 -32v-288c0 -32 -32.0693 -64 -64.0625 -64h-255.938v800zM147.281 504c-24.0605 -0.105469 -26.3682 -1.6543 -26.3682 -24.0928c0 -2.39062 0.0263672 -5.01855 0.0556641 -7.90723v-191
c0 -32.6289 0.00683594 -33 32 -33h63.75c31.9102 0 32.2188 0 32.2188 31v193c0 32 -0.00683594 32 -32 32h-63.9688c-1.34668 0 -2.63672 0.00390625 -3.87305 0.00390625c-0.618164 0 -1.22266 -0.000976562 -1.81445 -0.00390625zM147.281 151.999
c-26.0459 -0.118164 -26.3125 -1.98242 -26.3125 -31.1328v-1.86719v-191v-1.33496c0 -30.665 0.223633 -30.665 32 -30.665h63.9688c31.9932 0 32 0 32 32v193c0 31 -0.225586 31 -32.2188 31h-63.75c-1.34668 0 -2.6377 0.00390625 -3.87402 0.00390625
c-0.618164 0 -1.22266 -0.000976563 -1.81348 -0.00390625z" />
    <glyph glyph-name="c" unicode="c" horiz-adv-x="338" 
d="M249.001 600c31.9873 0 63.999 -32.0137 63.999 -64.001v-96h-96v64l-64 -0.09375c-32 0 -32 -0.00390625 -32 -32v-543.906c0 -31.6992 0 -32 31.1074 -32h0.892578h64v63.9687l96 0.03125v-96c0 -32 -32 -64 -64 -64h-160c-32 0.000976562 -64 32 -64 64v672
c0 31.9365 31.873 63.876 63.8096 63.876h0.191406z" />
    <glyph glyph-name="d" unicode="d" horiz-adv-x="354" 
d="M25 600l239.947 -0.000976562c32.0254 0 64.0527 -32 64.0527 -64v-671.999c0 -32 -32.0273 -64 -64.0527 -64h-239.947v800zM152.869 503.999c-30.2676 -0.000976563 -32.0596 -0.000976563 -32.0596 -21.9248c0 -2.94434 0.0322266 -6.28418 0.0322266 -10.0732
v-543.999c0 -31.999 0 -32 29.6465 -32h0.00585938h50.6367h0.0117188c31.7793 0 31.7793 0.00195312 31.7793 32v543.999c0 0.981445 0.000976562 1.93262 0.000976562 2.85449c0 28.9814 -0.478516 29.1455 -31.5039 29.1455h-0.524414z" />
    <glyph glyph-name="e" unicode="e" horiz-adv-x="306" 
d="M25 600h256v-96h-160v-256h160v-96h-160v-256h160v-96h-256v800z" />
    <glyph glyph-name="f" unicode="f" horiz-adv-x="306" 
d="M25 600h256v-96h-160v-256h160v-96h-160v-352h-96v800z" />
    <glyph glyph-name="g" unicode="g" horiz-adv-x="354" 
d="M265.001 600c31.9893 0 63.999 -32.0107 63.999 -64.001v-96h-96v64l-80 -0.09375c-32 0 -32 -0.00390625 -32 -32v-543.906c0 -31.6992 0 -32 31.1074 -32h0.892578h80v255.969l-64 0.03125v96h160v-384c0 -32.001 -32 -64 -64 -64h-176
c-32 0.000976562 -64 31.999 -64 64v672c0 31.9375 31.873 63.876 63.8096 63.876h0.191406z" />
    <glyph glyph-name="h" unicode="h" horiz-adv-x="354" 
d="M25 600h96v-352h112v352h96.001v-800h-96.001v352h-112v-352h-96v800z" />
    <glyph glyph-name="i" unicode="i" horiz-adv-x="166" 
d="M35 600h96v-800h-96v800z" />
    <glyph glyph-name="j" unicode="j" 
d="M201.001 600h95.999v-736c0 -32 -32 -64 -64 -64h-144c-32.0254 0 -64 32 -64 64v256h96v-192c0 -31.998 0.208008 -32 31.9883 -32h0.0117188h18.5h0.00585938c29.3457 0 29.4951 0.000976562 29.4951 31.0332v0.966797v672z" />
    <glyph glyph-name="k" unicode="k" horiz-adv-x="370" 
d="M25 600h96v-336c0 -16 0 -16 16 -16h48c16 0 40 0 40 16l23.9971 336h96l-31.9971 -352l-32 -64l64 -32l-0.496094 -352h-96l0.496094 336c0 16 0 16 -16 16h-96.0029c-16 0 -16 0 -16 -16l-0.496094 -336h-95.501v800z" />
    <glyph glyph-name="l" unicode="l" horiz-adv-x="259" 
d="M25 600h96v-704h128v-96h-224v800z" />
    <glyph glyph-name="m" unicode="m" horiz-adv-x="434" 
d="M25 -201v800h64l128.085 -384l127.916 384h63.998v-800h-95.999l0.00292969 480l-96.001 -272l-96 272l-0.00195312 -480h-96z" />
    <glyph glyph-name="n" unicode="n" horiz-adv-x="402" 
d="M25 600h96.0938l159.875 -544v544h96.0312v-800h-96.0312l-160.281 544l0.34375 -544h-96.0312v800z" />
    <glyph glyph-name="o" unicode="o" horiz-adv-x="370" 
d="M89 600h192c32.0254 0 64 -32 64 -64v-672c0 -32 -32 -64 -64 -64h-192c-32 0 -64 32 -64 64v672c0 32 32 64 64 64zM153 504c-32 0 -32 0 -32 -32v-544c0 -32 0 -32 32 -32h64h0.011639c31.7804 0 31.9884 0.00195265 31.9884 32v544c0 32 0 32 -32 32h-64z" />
    <glyph glyph-name="p" unicode="p" horiz-adv-x="354" 
d="M25 600h240.031c31.9678 0 63.9688 -31.999 63.9688 -64v-320c0 -32 -32 -64 -64 -64h-144l-0.28125 -352h-95.7188v800zM147.312 504c-26.3545 -0.116211 -26.375 -1.99902 -26.375 -32v-191c0 -32.999 0.0673828 -33 32 -33h48.0625
c31.7086 0 31.875 0.000956174 31.875 30.0343l-1.8712e-05 0.965701v193l1.5e-08 0.0936128c0 31.9064 -0.0155945 31.9064 -31.9688 31.9064h-47.9688c-1.33268 0 -2.60764 0.00347222 -3.83008 0.00347222c-0.61122 0 -1.20931 -0.000868055 -1.79492 -0.00347222z" />
    <glyph glyph-name="q" unicode="q" horiz-adv-x="354" 
d="M89 600h112h64c32.0254 0 64 -32 64 -64v-672c0 -32 -31.9746 -64 -64 -64h-64h-112c-32.0254 0 -64 32 -64 64v672c0 32 31.9746 64 64 64zM147.281 504c-25.8389 -0.112305 -26.2822 -1.87402 -26.2822 -29.0137
c0 -0.962891 0.000976562 -1.95801 0.000976562 -2.98535v-544c0 -31.998 0.209961 -32 31.9883 -32h0.0117188h48h0.0117188c31.7803 0 31.9883 0.00195313 31.9883 32v112h-48v96h48v336c0 1.03125 0.000976562 2.0293 0.000976562 2.99512
c0 28.7734 -0.5 29.0039 -31.2617 29.0039h-0.739258h-48c-1.35645 0 -2.65332 0.00390625 -3.89551 0.00390625c-0.621094 0 -1.22852 -0.000976562 -1.82324 -0.00390625z" />
    <glyph glyph-name="r" unicode="r" horiz-adv-x="370" 
d="M25 600h256.031c31.9844 0 63.9688 -32 63.9688 -64l-0.3125 -288l-63.9688 -64l64.1875 -32l-0.3125 -352h-95.9375l0.3125 321c0.000976562 0.779297 0.00195312 1.53906 0.00195312 2.2793c0 28.7207 -1.04004 28.7207 -32.2207 28.7207h-63.7188
c-29.3916 0 -32.0547 0 -32.0547 -24.8564c0 -2.46289 1.05762 -5.16895 1.05469 -8.14355l-0.3125 -319h-96.7188v800zM138.531 504.219c-1.27246 -0.0234375 -2.4707 -0.09375 -3.59473 -0.21875c-13.4814 -1.5 -14 -8 -14 -32v-191c0 -32.6289 0.015625 -33 32 -33
h81.9688c13.4814 1.42969 13.9688 8.11914 13.9688 31v193v0.09375c0 31.9062 -0.015625 31.9062 -31.9688 31.9062h-63.9688c-5.34473 0 -9.5752 0.229492 -13.1357 0.229492c-0.432617 0 -0.855469 -0.00292969 -1.26953 -0.0107422z" />
    <glyph glyph-name="s" unicode="s" horiz-adv-x="338" 
d="M88.9375 600h159.812c31.9648 0 63.9375 -32 63.9375 -64l0.3125 -96h-95.9062v32.25c-0.105469 31.75 -0.09375 31.75 -32.0938 31.75h-31.8125c-31.9619 0 -31.9688 0 -31.9688 -32v-96v-96c0 -32 0.00683594 -32 31.9688 -32h95.5625
c31.9648 0 63.9375 -32 63.9375 -64v-320c0 -32 -31.9727 -64 -63.9375 -64h-159.812c-31.9648 0 -63.9375 32 -63.9375 64l0.3125 96h95.9062l-0.21875 -32c0 -32 0 -31.999 33.25 -32h30.9062c31.9648 0 31.9688 0 31.9688 32v32v96v64
c0 31.999 -0.00390625 32 -31.9629 32h-0.00585938h-96.2188c-31.9648 0 -63.9375 32 -63.9375 64v320c0 32 31.9727 64 63.9375 64z" />
    <glyph glyph-name="t" unicode="t" horiz-adv-x="340" 
d="M10 600h320v-96h-112v-704h-96v704h-112v96z" />
    <glyph glyph-name="u" unicode="u" horiz-adv-x="354" 
d="M25 600h96v-672c0 -31.998 0.20991 -32 31.9884 -32h0.0116383h48c32 0 32 0 32 32v672h96v-736c0 -32 -32 -64 -64 -64h-176c-32 0 -64 32 -64 64v736z" />
    <glyph glyph-name="v" unicode="v" horiz-adv-x="424" 
d="M20 600h96l96 -600l96 600h96l-144 -800h-96z" />
    <glyph glyph-name="w" unicode="w" horiz-adv-x="402" 
d="M25.001 600h96l0.00195313 -528l80 240l80 -240l-0.00195313 528h95.999v-800h-63.999l-111.915 304l-112.085 -304h-64v800z" />
    <glyph glyph-name="x" unicode="x" horiz-adv-x="402" 
d="M25 600h96l80 -336l80 336h96l-96 -416l96 -384h-96l-80 288l-80 -288h-96l96 384z" />
    <glyph glyph-name="y" unicode="y" horiz-adv-x="384" 
d="M0 600h96l96 -352l96 352h96l-144 -480v-64v-256h-96v256v64z" />
    <glyph glyph-name="z" unicode="z" horiz-adv-x="338" 
d="M25 600h192h96l-169 -704h169v-96h-192h-96l169 704h-169v96z" />
    <glyph glyph-name="braceleft" unicode="{" horiz-adv-x="242" 
d="M89 600h128v-96h-96v-608h96v-96h-128c-32 0 -64 32 -64 64v288l64 32l-64 64v291v0.00292969c0 28.999 32.001 60.9971 64 60.9971z" />
    <glyph glyph-name="bar" unicode="|" horiz-adv-x="146" 
d="M25 600h96v-800h-96v800z" />
    <glyph glyph-name="braceright" unicode="}" horiz-adv-x="242" 
d="M25 600h128c31.999 0 64 -31.998 64 -60.9971v-0.00292969v-291l-64 -64l64 -32v-288c0 -32 -32 -64 -64 -64h-128v96h96v608h-96v96z" />
    <glyph glyph-name="asciitilde" unicode="~" horiz-adv-x="402" 
d="M147 278l108 -41l122 27v-81l-122 -27l-108 41l-122 -41v81z" />
    </font>
</defs>
</svg>
