<?xml version="1.0" standalone="no"?>
<!DOCTYPE svg PUBLIC "-//W3C//DTD SVG 1.1//EN" "http://www.w3.org/Graphics/SVG/1.1/DTD/svg11.dtd" >
<!--
2012-9-15: Created.
-->
<svg>
<metadata>
Created by FontForge 20120731 at Sat Oct 20 19:24:49 2012
 By 🚀
Copyright (c) 2012, Tristen Brown &#60;tristen.brown@gmail.com&#62;, with Reserved Font Name: 'Forsythe'.

This Font Software is licensed under the SIL Open Font License, Version 1.0.
The license available with a FAQ at:
http://scripts.sil.org/OFL

September 2012
</metadata>
<defs>
<font id="forsythe-book" horiz-adv-x="322" >
  <font-face 
    font-family="Forsythe"
    font-weight="400"
    font-stretch="normal"
    units-per-em="1000"
    panose-1="2 0 5 3 0 0 0 0 0 0"
    ascent="800"
    descent="-200"
    x-height="600"
    cap-height="600"
    bbox="0 -312 393 600"
    underline-thickness="50"
    underline-position="-100"
    unicode-range="U+0020-007E"
  />
    <missing-glyph />
    <glyph glyph-name="exclam" unicode="!" horiz-adv-x="114" 
d="M25 600h64v-672h-64v672zM25 -120h64v-80h-64v80z" />
    <glyph glyph-name="quotedbl" unicode="&#x22;" horiz-adv-x="226" 
d="M25 600h64v-144h-64v144zM137 600h64v-144h-64v144z" />
    <glyph glyph-name="numbersign" unicode="#" horiz-adv-x="418" 
d="M89 600h64v-272h112v272h64v-272h64v-64h-64v-128h64v-64h-64v-272h-64v272h-112v-272h-64v272h-64v64h64v128h-64v64h64v272zM153 264v-128h112v128h-112z" />
    <glyph glyph-name="I" unicode="I" horiz-adv-x="114" 
d="M25 600h64v-800h-64v800z" />
    <glyph glyph-name="dollar" unicode="$" horiz-adv-x="274" 
d="M105 600h64v-96h16c31.9648 0 63.5 -32 63.5 -64l0.5 -96h-64v64c0 32 0 32 -32 32h-32c-32 0 -32 0 -32 -32v-112v-48c0 -32 0.0380859 -32 32 -32h64c31.9648 0 63.5 -32 63.5 -64v-192c-0.00195312 -32 -31.5352 -64 -63.5 -64h-16v-96h-64v96h-16
c-31.9648 0 -64 32 -64 64l0.5 96h63.5v-64c0 -32 0.00976562 -32 33.7188 -32h30.2812c32 0 32 0 32 32v32v48v48c0 32 -0.0351562 32 -32 32h-64c-31.9648 0 -64 32 -64 64v224c0 32 32.0352 64 64 64h16v96z" />
    <glyph glyph-name="percent" unicode="%" horiz-adv-x="274" 
d="M25 600h64v-144h-64v144zM185 600h64l-160 -800h-64zM185 -56h64v-144h-64v144z" />
    <glyph glyph-name="ampersand" unicode="&#x26;" horiz-adv-x="338" 
d="M89 600h144v-64h-113c-31 0 -31 0 -31 -32v-288h112v80h64v-80h48v-64h-48v-288c0 -32 -32 -64 -64 -64h-112c-32 0 -64 32 -64 64v288l64 32l-64 32v320c0 32 32 64 64 64zM89 152v-254.062c0 -33.9258 0 -33.9375 32 -33.9375h48c32 0 32 0 32 32v256h-112z" />
    <glyph glyph-name="quotesingle" unicode="'" horiz-adv-x="114" 
d="M25 600h64v-144h-64v144z" />
    <glyph glyph-name="parenleft" unicode="(" horiz-adv-x="210" 
d="M89 600h96v-64h-64.4375h-0.517578c-30.8027 0 -31.0449 -0.171875 -31.0449 -31.2871v-0.712891v-608c0 -32 0.0136719 -32 32.0938 -32h63.9062v-64h-96c-32 0 -64 32 -64 64v675v0.00292969c0 28.999 32.001 60.9971 64 60.9971z" />
    <glyph glyph-name="parenright" unicode=")" horiz-adv-x="210" 
d="M25 600h96c31.999 0 64 -31.998 64 -60.9971v-0.00292969v-675c0 -32 -32 -64 -64 -64h-96v64h64c31.7539 0 32 0.000976562 32 32.7324v0.767578v604.938v0.546875c0 33.0137 -0.174805 33.0156 -31.9893 33.0156h-0.0107422h-64v64z" />
    <glyph glyph-name="asterisk" unicode="*" horiz-adv-x="242" 
d="M105 600h33l-1 -64l64 32l16 -32l-64 -32l64 -32l-16 -32l-64 32l1 -64h-33v64l-64 -32l-16 32l64 32l-64 32l16 32l64 -32v64z" />
    <glyph glyph-name="plus" unicode="+" horiz-adv-x="402" 
d="M169 380h64v-144h144v-64h-144v-144h-64v144h-144v64h144v144z" />
    <glyph glyph-name="comma" unicode="," horiz-adv-x="146" 
d="M121 -200v-80l-96 -32v80z" />
    <glyph glyph-name="hyphen" unicode="-" 
d="M25 216h272v-64h-272v64z" />
    <glyph glyph-name="period" unicode="." horiz-adv-x="114" 
d="M25 -120h64v-80h-64v80z" />
    <glyph glyph-name="slash" unicode="/" horiz-adv-x="289" 
d="M201 599.969h63l-176 -800h-63z" />
    <glyph glyph-name="zero" unicode="0" horiz-adv-x="290" 
d="M89 600h112c32.0254 0 64 -32 64 -64v-672c0 -32 -31.9746 -64 -64 -64h-112c-32.0254 0 -64 32 -64 64v672c0 32 31.9746 64 64 64zM115.281 536c-25.8389 -0.112305 -26.2822 -1.875 -26.2822 -29.0146c0 -0.962891 0.000976562 -1.95801 0.000976562 -2.98535v-608
c0 -31.998 0.209961 -32 31.9883 -32h0.0117188h48h0.0117188c31.7803 0 31.9883 0.00195312 31.9883 32v608c0 1.03125 0.000976562 2.0293 0.000976562 2.99609c0 28.7734 -0.5 29.0039 -31.2617 29.0039h-0.739258h-48
c-1.35645 0 -2.65234 0.00390625 -3.89551 0.00390625c-0.621094 0 -1.22852 -0.000976562 -1.82324 -0.00390625z" />
    <glyph glyph-name="one" unicode="1" horiz-adv-x="162" 
d="M25 600h48h64v-800h-64v736h-48v64z" />
    <glyph glyph-name="two" unicode="2" horiz-adv-x="258" 
d="M25 600h144.125c31.9648 0 63.9375 -32 63.9375 -64v-328c0 -32 -31.8164 -56 -63.7812 -56h-48.2188c-31.9648 0 -31.9531 0 -32 -32l-0.15625 -216c0.160156 -40 0.188477 -40 32.1562 -40h112l-0.25 -64h-143.75c-31.9648 0 -63.7129 40 -63.75 72l-0.3125 280
c0 32 31.9727 64 63.9375 64h48.0625c26.8213 0 32.5195 0.0449219 32.5195 18.9316c0 3.62012 -0.209961 7.93164 -0.519531 13.0684l-0.21875 136v128v0.795898c0 23.2021 -0.176758 23.2041 -31.7656 23.2041h-0.015625h-112v64z" />
    <glyph glyph-name="three" unicode="3" horiz-adv-x="258" 
d="M25 600h144c32 0 64 -32 64 -64v-320l-48 -32l48 -32v-288c0 -32 -32 -64 -64 -64h-144v64h144v288h-144v64h144v320h-144v64z" />
    <glyph glyph-name="four" unicode="4" horiz-adv-x="290" 
d="M25 600h64v-384h112v384h64v-800h-64v352h-176v448z" />
    <glyph glyph-name="five" unicode="5" horiz-adv-x="258" 
d="M25 600h208v-64h-144l0.28125 -160v-128c0 -31.999 0.00683594 -32 31.9688 -32h47.5625c31.9648 0 63.9375 -32 63.9375 -64v-288c0 -32 -31.9727 -64 -63.9375 -64h-143.812v64h112.156c31.9102 0 31.9375 0 31.9375 31.8359v0.164062v224
c-0.105469 31.999 0.0273438 32 -31.9316 32h-0.00585938h-48.2188c-31.9648 0 -63.9375 32 -63.9375 64v384z" />
    <glyph glyph-name="six" unicode="6" horiz-adv-x="290" 
d="M25 600h63.7188l0.28125 -384h112c32 0 64 -32 64 -64v-288c0 -32 -31.9844 -64 -63.9688 -64h-112.031c-32 0 -64 32 -64 64v736zM115.312 152c-26.3535 -0.160156 -26.375 -2.41113 -26.375 -33v-223c0 -31.8252 0.015625 -32 31.4756 -32h0.524414h47.9688
c31.9531 0 31.9688 0 31.9688 31.9062v0.09375v225v0.96582c0 30.0332 -0.166016 30.0342 -31.875 30.0342h-48.0625c-1.33301 0 -2.60742 0.00488281 -3.83008 0.00488281c-0.611328 0 -1.20898 -0.000976562 -1.79492 -0.00488281z" />
    <glyph glyph-name="seven" unicode="7" horiz-adv-x="292" 
d="M0 600h266.656v-800h-62.75v737.25h-203.906v62.75z" />
    <glyph glyph-name="eight" unicode="8" horiz-adv-x="306" 
d="M89 600h128c31.9932 0 64 -32 64 -64v-320l-48.5 -32l48.5 -32v-288c0 -32 -16.0068 -64 -48 -64h-144c-32 0 -64 32 -64 64v288l64 32l-64 32v320c0.887695 31.9873 32 64 64 64zM115.312 536c-24.0605 -0.105469 -26.3682 -1.65332 -26.3682 -24.0791
c0 -2.39453 0.0263672 -5.02734 0.0556641 -7.9209v-255c0 -32.6289 0.00683594 -33 32 -33h63.5c31.9072 0 32.5 0 32.5 31v257c0 32 -0.00683594 32 -32 32h-64c-1.34668 0 -2.63672 0.00390625 -3.87305 0.00390625
c-0.618164 0 -1.22266 -0.000976562 -1.81445 -0.00390625zM115.312 152c-26.041 -0.118164 -26.3125 -1.98242 -26.3125 -31.1025v-1.89746v-223v-1.33496c0 -30.665 0.223633 -30.665 32 -30.665h64c31.9941 0 32 0 32 32v225c0 31 -0.506836 31 -32.5 31h-63.5
c-1.34668 0 -2.63672 0.00390625 -3.87402 0.00390625c-0.618164 0 -1.22266 -0.000976562 -1.81348 -0.00390625z" />
    <glyph glyph-name="nine" unicode="9" horiz-adv-x="290" 
d="M88.9688 600h112.031c32 0 64 -32 64 -64v-736h-63.7188l-0.28125 352h-112c-32 0 -64 32 -64 64v320c0 32 31.9844 64 63.9688 64zM115.469 536c-26.334 -0.117188 -26.3438 -1.99707 -26.3438 -31.9336v-0.0664062v-257v-0.96582
c0 -30.0332 0.166016 -30.0342 31.875 -30.0342h48.0625c31.9844 0 32 0.371094 32 33v255c0 31.8252 -0.015625 32 -31.4756 32h-0.524414h-47.9688c-1.33301 0 -2.60742 0.00390625 -3.83008 0.00390625c-0.611328 0 -1.20898 -0.000976562 -1.79492 -0.00390625z" />
    <glyph glyph-name="colon" unicode=":" horiz-adv-x="114" 
d="M25 440h64v-144h-64v144zM25 104h64v-144h-64v144z" />
    <glyph glyph-name="semicolon" unicode=";" horiz-adv-x="114" 
d="M25 440h64v-144h-64v144zM25 104h64v-304h-64v304z" />
    <glyph glyph-name="less" unicode="&#x3c;" horiz-adv-x="338" 
d="M313 520v-80l-240 -256l240 -224v-80l-288 272v64z" />
    <glyph glyph-name="equal" unicode="=" 
d="M25 280h272v-64h-272v64zM25 152h272v-64h-272v64z" />
    <glyph glyph-name="greater" unicode="&#x3e;" horiz-adv-x="338" 
d="M25 520l288 -304v-64l-288 -272v80l240 224l-240 256v80z" />
    <glyph glyph-name="question" unicode="?" horiz-adv-x="274" 
d="M25 600h160.062c31.9648 0 63.9375 -32 63.9375 -64v-328c0 -32 -31.8164 -56 -63.7812 -56h-64.2188c-31.9648 0 -31.9531 0 -32 -32v-192h-64v222c0 34 32 66 64 66h64h0.0527344c30.7754 0 31.9502 0.0078125 31.9502 28.71
c0 1.05664 -0.000976563 2.15332 -0.00292969 3.29004l-0.21875 136v128v0.795898c0 23.2021 -0.176758 23.2041 -31.7656 23.2041h-0.015625h-128v64zM25 -120h64v-80h-64v80z" />
    <glyph glyph-name="at" unicode="@" horiz-adv-x="370" 
d="M88.8438 600h191.312c31.9492 0 63.8438 -32 63.8438 -64l1 -496c0 -32 -32 -64 -63 -64h-81.5c-31.9248 0 -63.8438 32 -63.8438 64v272c0 32 32.3447 64 63.8438 64h79.7188v128c0 1.0625 0.000976562 2.08984 0.000976562 3.08301
c0 28.6865 -0.513672 28.917 -31.1699 28.917h-0.737305h-127.625h-0.737305c-30.71 0 -31.2012 -0.230469 -31.2012 -29.0537c0 -0.950195 0.000976562 -1.93262 0.000976562 -2.94629v-608c0 -31.998 0.222656 -32 31.9258 -32h0.0117188h224.312l-1 -64h-255.156
c-31.9502 0 -63.8438 32 -63.8438 64v672c0 32 31.8936 64 63.8438 64zM226.656 312c-25.7764 -0.112305 -26.2197 -1.875 -26.2197 -29.0078c0 -0.964844 0.000976562 -1.96191 0.000976562 -2.99219v-208c0 -31.998 0.191406 -32 31.8945 -32h0.0117188h15.9688h0.0117188
c31.7031 0 31.9258 0.00195312 31.9258 32v208c0 1.00488 0.000976562 1.97852 0.000976562 2.92188c0 28.8477 -0.486328 29.0781 -31.2012 29.0781h-0.737305h-15.9688c-1.35254 0 -2.63867 0.00390625 -3.87305 0.00390625
c-0.617188 0 -1.22168 -0.000976562 -1.81445 -0.00390625z" />
    <glyph glyph-name="A" unicode="A" horiz-adv-x="372" 
d="M138 600h96l128 -800h-64l-38.5 272h-147l-38.5 -272h-64zM186 520l-61 -400h122z" />
    <glyph glyph-name="B" unicode="B" horiz-adv-x="337" 
d="M25 600h223.906c32 0 64 -32 64 -64l-0.21875 -304l-47.7812 -32l48 -32v-304c0 -32 -32 -64 -64 -64h-223.906v800zM115.281 536c-24.0605 -0.105469 -26.3672 -1.65332 -26.3672 -24.0918c0 -2.3916 0.0253906 -5.01953 0.0546875 -7.9082v-239
c0 -32.6289 0.00683594 -33 32 -33h95.75c31.9102 0 32.2188 0 32.2188 31v241c0 32 -0.00683594 32 -32 32h-95.9688c-1.34668 0 -2.63672 0.00390625 -3.87305 0.00390625c-0.618164 0 -1.22266 -0.000976562 -1.81445 -0.00390625zM115.281 168
c-26.0459 -0.118164 -26.3125 -1.9834 -26.3125 -31.1328v-1.86719v-239v-1.33496c0 -30.665 0.223633 -30.665 32 -30.665h95.9688c31.9932 0 32 0 32 32v241c0 31 -0.225586 31 -32.2188 31h-95.75c-1.34668 0 -2.6377 0.00390625 -3.87402 0.00390625
c-0.618164 0 -1.22266 -0.000976562 -1.81348 -0.00390625z" />
    <glyph glyph-name="C" unicode="C" horiz-adv-x="306" 
d="M217 600h0.0478516c31.9844 0 63.9521 -32.0156 63.9521 -64v-64h-64v64l-96 -0.09375c-32 -0.0263672 -32 -0.00390625 -32 -32v-607.906c0 -31.7539 0 -32 31.2676 -32h0.732422h96v95.9688l64 0.03125v-96c0 -32 -32 -64 -64 -64h-128c-32 0.00195312 -64 32 -64 64
v672c0 31.9365 31.873 63.875 63.8086 63.875h0.191406z" />
    <glyph glyph-name="D" unicode="D" horiz-adv-x="306" 
d="M25 600h191.938c32.0254 0 64.0625 -32 64.0625 -64v-672c0 -32 -32.0371 -64 -64.0625 -64h-191.938v800zM114.844 536c-24.4805 -0.103516 -26.0332 -1.55273 -26.0332 -21.8887c0 -2.9541 0.0332031 -6.30664 0.0332031 -10.1113v-608
c0 -31.999 0.00390625 -32 29.6504 -32h0.00585938h66.625h0.0117188c31.7607 0 31.7695 0.00195312 31.7695 31.9473v0.0527344v608c0 1.03125 0.000976562 2.0293 0.000976562 2.99609c0 28.8398 -0.501953 29.0039 -31.4766 29.0039h-0.524414h-64.0312
c-1.43066 0 -2.80371 0.00390625 -4.11328 0.00390625c-0.655273 0 -1.29492 -0.000976562 -1.91797 -0.00390625z" />
    <glyph glyph-name="E" unicode="E" horiz-adv-x="290" 
d="M25 600h240v-64h-176v-304h176v-64h-176v-304h176v-64h-240v800z" />
    <glyph glyph-name="F" unicode="F" horiz-adv-x="290" 
d="M25 600h240v-64h-176v-304h176v-64h-176v-272v-96h-64v800z" />
    <glyph glyph-name="G" unicode="G" 
d="M233 600h0.0419922c31.9873 0 63.958 -32.0127 63.958 -64v-96h-64v96l-112 -0.09375c-31.999 -0.0224609 -32 -0.00390625 -32 -31.9941v-0.00585938v-607.906v-0.00585938c0 -31.748 0.000976562 -31.9941 31.2676 -31.9941h0.732422h112v303.969l-64 0.03125v64h128
v-368c0 -32.001 -31.999 -64 -64 -64h-144c-32.001 0.00195312 -64 31.999 -64 64v672c0 31.9365 31.8711 63.875 63.8076 63.875h0.192383z" />
    <glyph glyph-name="H" unicode="H" 
d="M25 600h64v-368h144v368h64v-800h-64v368h-144v-368h-64v800z" />
    <glyph glyph-name="J" unicode="J" horiz-adv-x="290" 
d="M201 600h64v-736c0 -32 -16 -64 -48 -64h-128c-32.0254 0 -64 32 -64 64v160h64v-128c0 -31.998 0.208008 -32 31.9883 -32h0.0117188h50.5h0.00585938c29.3447 0 29.4941 0.000976562 29.4941 31.0332v0.966797v704z" />
    <glyph glyph-name="K" unicode="K" horiz-adv-x="330" 
d="M25 600h64v-352c0 -16 0 -16 16 -16h104c16 0 16.0029 0 16.0029 16l15.9941 352h64l-15.9971 -352l-32 -32l48 -32l-0.496094 -384h-64l0.496094 352c0 16 0 16 -16 16h-120.003c-16 0 -16 0 -16 -16l-0.496094 -352h-63.501v800z" />
    <glyph glyph-name="L" unicode="L" horiz-adv-x="259" 
d="M25 600h64v-736h160v-64h-224v800z" />
    <glyph glyph-name="M" unicode="M" horiz-adv-x="402" 
d="M25 -200v800h48l128.085 -432l127.916 432h47.998v-800h-63.999l0.00292969 512l-112.001 -336l-112 336l-0.00195312 -512h-64z" />
    <glyph glyph-name="N" unicode="N" horiz-adv-x="370" 
d="M25 600h64.0938l191.875 -624v624h64.0312v-800h-64.0312l-192.281 624l0.34375 -624h-64.0312v800z" />
    <glyph glyph-name="O" unicode="O" 
d="M89 600h112h32c32.0254 0 64 -32 64 -64v-672c0 -32 -31.9746 -64 -64 -64h-32h-112c-32.0254 0 -64 32 -64 64v672c0 32 31.9746 64 64 64zM115.281 536c-25.8389 -0.112305 -26.2822 -1.875 -26.2822 -29.0146c0 -0.962891 0.000976562 -1.95801 0.000976562 -2.98535
v-608c0 -31.998 0.209961 -32 31.9883 -32h0.0117188h80h0.0117188c31.7803 0 31.9883 0.00195312 31.9883 32v608c0 1.03125 0.000976562 2.0293 0.000976562 2.99609c0 28.7734 -0.5 29.0039 -31.2617 29.0039h-0.739258h-80
c-1.35645 0 -2.65234 0.00390625 -3.89551 0.00390625c-0.621094 0 -1.22852 -0.000976562 -1.82324 -0.00390625z" />
    <glyph glyph-name="P" unicode="P" 
d="M25 600h208.031c31.9678 0 63.9688 -31.999 63.9688 -64v-304c0 -32 -32 -64 -64 -64h-144l-0.28125 -368h-63.7188v800zM115.312 536c-26.3545 -0.116211 -26.375 -1.99902 -26.375 -32v-239c0 -32.6289 0.0673828 -33 32 -33h80.0625
c31.7086 0 31.875 0.000956174 31.875 30.0343l-1.87123e-05 0.965701v241l1.48866e-08 0.0936128c0 31.9064 -0.0155945 31.9064 -31.9688 31.9064h-79.9688c-1.33268 0 -2.60764 0.00347222 -3.83008 0.00347222c-0.61122 0 -1.20931 -0.000868056 -1.79492 -0.00347222z
" />
    <glyph glyph-name="Q" unicode="Q" 
d="M89 600h112h32c32.0254 0 64 -32 64 -64v-672c0 -32 -31.9746 -64 -64 -64h-32h-112c-32.0254 0 -64 32 -64 64v672c0 32 31.9746 64 64 64zM115.281 536c-25.8389 -0.112305 -26.2822 -1.875 -26.2822 -29.0146c0 -0.962891 0.000976562 -1.95801 0.000976562 -2.98535
v-608c0 -31.998 0.209961 -32 31.9883 -32h0.0117188h80h0.0117188c31.7803 0 31.9883 0.00195312 31.9883 32v208h-48v64h48v336c0 1.03125 0.000976562 2.0293 0.000976562 2.99609c0 28.7734 -0.5 29.0039 -31.2617 29.0039h-0.739258h-80
c-1.35645 0 -2.65234 0.00390625 -3.89551 0.00390625c-0.621094 0 -1.22852 -0.000976562 -1.82324 -0.00390625z" />
    <glyph glyph-name="R" unicode="R" 
d="M25 600h208.031c31.9844 0 63.9688 -32 63.9688 -64v-304l-48 -32l48 -32l-0.40625 -368h-63.9375l0.3125 337c0.000821514 0.899275 0.00162577 1.77246 0.00162577 2.62032c0 28.2175 -0.890811 28.3797 -31.6833 28.3797l-0.537059 -1.08705e-05h-79.7188
l-0.516344 1.05386e-05c-31.4682 0 -31.4837 -0.177583 -31.4837 -33l-0.3125 -335h-63.7188v800zM115.312 536c-26.333 -0.116116 -26.3438 -1.99596 -26.3438 -31.9267l7.12723e-09 -0.0732553v-239c0 -32.999 0.0361328 -33 31.9688 -33h80.0625
c31.7105 0 31.875 0.000956404 31.875 30.0451l-1.80809e-05 0.954887v241l1.48866e-08 0.0936128c0 31.9064 -0.0155945 31.9064 -31.9688 31.9064h-79.9688c-1.33268 0 -2.60764 0.00347222 -3.83008 0.00347222c-0.61122 0 -1.20931 -0.000868056 -1.79492 -0.00347222z
" />
    <glyph glyph-name="S" unicode="S" horiz-adv-x="306" 
d="M88.9375 600h127.812c31.9648 0 63.9375 -32 63.9375 -64l0.3125 -96h-63.9062v63.875c-0.105469 32.124 -0.09375 32.125 -32.0879 32.125h-0.00585938h-63.8125c-31.9619 0 -31.9688 0 -31.9688 -32v-192v-48c0 -32 0.00683594 -32 31.9688 -32h95.5625
c31.9648 0 63.9375 -32 63.9375 -64v-304c0 -32 -31.9727 -64 -63.9375 -64h-127.812c-31.9648 0 -63.9375 32 -63.9375 64l0.3125 96h63.9062l-0.21875 -64c0 -32 0.0166016 -31.999 33.0938 -32h63.0625c31.9648 0 31.9688 0 31.9688 32v32v48v160
c0 31.999 -0.00390625 32 -31.9629 32h-0.00585938h-96.2188c-31.9648 0 -63.9375 32 -63.9375 64v304c0 32 31.9727 64 63.9375 64z" />
    <glyph glyph-name="T" unicode="T" horiz-adv-x="308" 
d="M10 600h288v-64h-112v-736h-64v736h-112v64z" />
    <glyph glyph-name="U" unicode="U" horiz-adv-x="306" 
d="M25 600h64v-704c0 -31.998 0.209961 -32 31.9883 -32h0.0117188h64h0.0117188c31.7803 0 31.9883 0.00195312 31.9883 32v704h64v-736c-0.347656 -31.998 -31.9746 -64 -64 -64h-48h-80c-32.0254 0 -64 32 -64 64v736z" />
    <glyph glyph-name="V" unicode="V" horiz-adv-x="372" 
d="M10 600h64l112 -632l112 632h64l-144 -800h-64z" />
    <glyph glyph-name="W" unicode="W" horiz-adv-x="370" 
d="M25.001 600h64l0.00195312 -592l96 288l96 -288l-0.00195313 592h63.999v-800h-47.999l-111.915 320l-112.085 -320h-48v800z" />
    <glyph glyph-name="backslash" unicode="\" horiz-adv-x="289" 
d="M25 599.969h63l176 -800h-63z" />
    <glyph glyph-name="X" unicode="X" horiz-adv-x="370" 
d="M25 600h64l96 -368l96 368h64l-96 -416l96 -384h-64l-96 336l-96 -336h-64l96 384z" />
    <glyph glyph-name="Y" unicode="Y" horiz-adv-x="352" 
d="M0 600h64l112 -368l112 368h64l-144 -480v-64v-256h-64v256v64z" />
    <glyph glyph-name="w" unicode="w" horiz-adv-x="370" 
d="M25.001 600h64l0.00195312 -592l96 288l96 -288l-0.00195313 592h63.999v-800h-47.999l-111.915 320l-112.085 -320h-48v800z" />
    <glyph glyph-name="Z" unicode="Z" horiz-adv-x="306" 
d="M25 600h160h96l-169 -736h169v-64h-192h-64l169 736h-169v64z" />
    <glyph glyph-name="bracketleft" unicode="[" horiz-adv-x="194" 
d="M25 600h144v-64h-80v-672h80v-64h-144v800z" />
    <glyph glyph-name="bracketright" unicode="]" horiz-adv-x="194" 
d="M25 600h144v-800h-144v64h80v672h-80v64z" />
    <glyph glyph-name="asciicircum" unicode="^" horiz-adv-x="414" 
d="M25 388l136 212h91l137 -212h-76l-106 167l-106 -167h-76zM39 376z" />
    <glyph glyph-name="underscore" unicode="_" horiz-adv-x="418" 
d="M25 -136h368v-64h-368v64z" />
    <glyph glyph-name="grave" unicode="`" horiz-adv-x="162" 
d="M25 600h64l48 -144h-64z" />
    <glyph glyph-name="a" unicode="a" horiz-adv-x="372" 
d="M138 600h96l128 -800h-64l-38.5 272h-147l-38.5 -272h-64zM186 520l-61 -400h122z" />
    <glyph glyph-name="b" unicode="b" horiz-adv-x="337" 
d="M25 600h223.906c32 0 64 -32 64 -64l-0.21875 -304l-47.7812 -32l48 -32v-304c0 -32 -32 -64 -64 -64h-223.906v800zM115.281 536c-24.0605 -0.105469 -26.3672 -1.65332 -26.3672 -24.0918c0 -2.3916 0.0253906 -5.01953 0.0546875 -7.9082v-239
c0 -32.6289 0.00683594 -33 32 -33h95.75c31.9102 0 32.2188 0 32.2188 31v241c0 32 -0.00683594 32 -32 32h-95.9688c-1.34668 0 -2.63672 0.00390625 -3.87305 0.00390625c-0.618164 0 -1.22266 -0.000976562 -1.81445 -0.00390625zM115.281 168
c-26.0459 -0.118164 -26.3125 -1.9834 -26.3125 -31.1328v-1.86719v-239v-1.33496c0 -30.665 0.223633 -30.665 32 -30.665h95.9688c31.9932 0 32 0 32 32v241c0 31 -0.225586 31 -32.2188 31h-95.75c-1.34668 0 -2.6377 0.00390625 -3.87402 0.00390625
c-0.618164 0 -1.22266 -0.000976562 -1.81348 -0.00390625z" />
    <glyph glyph-name="c" unicode="c" horiz-adv-x="306" 
d="M217 600h0.0478516c31.9844 0 63.9521 -32.0156 63.9521 -64v-64h-64v64l-96 -0.09375c-32 -0.0263672 -32 -0.00390625 -32 -32v-607.906c0 -31.7539 0 -32 31.2676 -32h0.732422h96v95.9688l64 0.03125v-96c0 -32 -32 -64 -64 -64h-128c-32 0.00195312 -64 32 -64 64
v672c0 31.9365 31.873 63.875 63.8086 63.875h0.191406z" />
    <glyph glyph-name="d" unicode="d" horiz-adv-x="306" 
d="M25 600h191.938c32.0254 0 64.0625 -32 64.0625 -64v-672c0 -32 -32.0371 -64 -64.0625 -64h-191.938v800zM114.844 536c-24.4805 -0.103516 -26.0332 -1.55273 -26.0332 -21.8887c0 -2.9541 0.0332031 -6.30664 0.0332031 -10.1113v-608
c0 -31.999 0.00390625 -32 29.6504 -32h0.00585938h66.625h0.0117188c31.7607 0 31.7695 0.00195312 31.7695 31.9473v0.0527344v608c0 1.03125 0.000976562 2.0293 0.000976562 2.99609c0 28.8398 -0.501953 29.0039 -31.4766 29.0039h-0.524414h-64.0312
c-1.43066 0 -2.80371 0.00390625 -4.11328 0.00390625c-0.655273 0 -1.29492 -0.000976562 -1.91797 -0.00390625z" />
    <glyph glyph-name="e" unicode="e" horiz-adv-x="290" 
d="M25 600h240v-64h-176v-304h176v-64h-176v-304h176v-64h-240v800z" />
    <glyph glyph-name="f" unicode="f" horiz-adv-x="290" 
d="M25 600h240v-64h-176v-304h176v-64h-176v-272v-96h-64v800z" />
    <glyph glyph-name="g" unicode="g" 
d="M233 600h0.0419922c31.9873 0 63.958 -32.0127 63.958 -64v-96h-64v96l-112 -0.09375c-31.999 -0.0224609 -32 -0.00390625 -32 -31.9941v-0.00585938v-607.906v-0.00585938c0 -31.748 0.000976562 -31.9941 31.2676 -31.9941h0.732422h112v303.969l-64 0.03125v64h128
v-368c0 -32.001 -31.999 -64 -64 -64h-144c-32.001 0.00195312 -64 31.999 -64 64v672c0 31.9365 31.8711 63.875 63.8076 63.875h0.192383z" />
    <glyph glyph-name="h" unicode="h" 
d="M25 600h64v-368h144v368h64v-800h-64v368h-144v-368h-64v800z" />
    <glyph glyph-name="i" unicode="i" horiz-adv-x="134" 
d="M35 600h64v-800h-64v800z" />
    <glyph glyph-name="j" unicode="j" horiz-adv-x="290" 
d="M201 600h64v-736c0 -32 -16 -64 -48 -64h-128c-32.0254 0 -64 32 -64 64v160h64v-128c0 -31.998 0.208008 -32 31.9883 -32h0.0117188h50.5h0.00585938c29.3447 0 29.4941 0.000976562 29.4941 31.0332v0.966797v704z" />
    <glyph glyph-name="k" unicode="k" horiz-adv-x="330" 
d="M25 600h64v-352c0 -16 0 -16 16 -16h104c16 0 16.0029 0 16.0029 16l15.9941 352h64l-15.9971 -352l-32 -32l48 -32l-0.496094 -384h-64l0.496094 352c0 16 0 16 -16 16h-120.003c-16 0 -16 0 -16 -16l-0.496094 -352h-63.501v800z" />
    <glyph glyph-name="l" unicode="l" horiz-adv-x="259" 
d="M25 600h64v-736h160v-64h-224v800z" />
    <glyph glyph-name="m" unicode="m" horiz-adv-x="402" 
d="M25 -200v800h48l128.085 -432l127.916 432h47.998v-800h-63.999l0.00292969 512l-112.001 -336l-112 336l-0.00195312 -512h-64z" />
    <glyph glyph-name="n" unicode="n" horiz-adv-x="370" 
d="M25 600h64.0938l191.875 -624v624h64.0312v-800h-64.0312l-192.281 624l0.34375 -624h-64.0312v800z" />
    <glyph glyph-name="o" unicode="o" 
d="M89 600h112h32c32.0254 0 64 -32 64 -64v-672c0 -32 -31.9746 -64 -64 -64h-32h-112c-32.0254 0 -64 32 -64 64v672c0 32 31.9746 64 64 64zM115.281 536c-25.8389 -0.112305 -26.2822 -1.875 -26.2822 -29.0146c0 -0.962891 0.000976562 -1.95801 0.000976562 -2.98535
v-608c0 -31.998 0.209961 -32 31.9883 -32h0.0117188h80h0.0117188c31.7803 0 31.9883 0.00195312 31.9883 32v608c0 1.03125 0.000976562 2.0293 0.000976562 2.99609c0 28.7734 -0.5 29.0039 -31.2617 29.0039h-0.739258h-80
c-1.35645 0 -2.65234 0.00390625 -3.89551 0.00390625c-0.621094 0 -1.22852 -0.000976562 -1.82324 -0.00390625z" />
    <glyph glyph-name="p" unicode="p" 
d="M25 600h208.031c31.9678 0 63.9688 -31.999 63.9688 -64v-304c0 -32 -32 -64 -64 -64h-144l-0.28125 -368h-63.7188v800zM115.312 536c-26.3545 -0.116211 -26.375 -1.99902 -26.375 -32v-239c0 -32.6289 0.0673828 -33 32 -33h80.0625
c31.7086 0 31.875 0.000956174 31.875 30.0343l-1.87123e-05 0.965701v241l1.48866e-08 0.0936128c0 31.9064 -0.0155945 31.9064 -31.9688 31.9064h-79.9688c-1.33268 0 -2.60764 0.00347222 -3.83008 0.00347222c-0.61122 0 -1.20931 -0.000868056 -1.79492 -0.00347222z
" />
    <glyph glyph-name="q" unicode="q" 
d="M89 600h112h32c32.0254 0 64 -32 64 -64v-672c0 -32 -31.9746 -64 -64 -64h-32h-112c-32.0254 0 -64 32 -64 64v672c0 32 31.9746 64 64 64zM115.281 536c-25.8389 -0.112305 -26.2822 -1.875 -26.2822 -29.0146c0 -0.962891 0.000976562 -1.95801 0.000976562 -2.98535
v-608c0 -31.998 0.209961 -32 31.9883 -32h0.0117188h80h0.0117188c31.7803 0 31.9883 0.00195312 31.9883 32v208h-48v64h48v336c0 1.03125 0.000976562 2.0293 0.000976562 2.99609c0 28.7734 -0.5 29.0039 -31.2617 29.0039h-0.739258h-80
c-1.35645 0 -2.65234 0.00390625 -3.89551 0.00390625c-0.621094 0 -1.22852 -0.000976562 -1.82324 -0.00390625z" />
    <glyph glyph-name="r" unicode="r" 
d="M25 600h208.031c31.9844 0 63.9688 -32 63.9688 -64v-304l-48 -32l48 -32l-0.40625 -368h-63.9375l0.3125 337c0.000821514 0.899275 0.00162577 1.77246 0.00162577 2.62032c0 28.2175 -0.890811 28.3797 -31.6833 28.3797l-0.537059 -1.08705e-05h-79.7188
l-0.516344 1.05386e-05c-31.4682 0 -31.4837 -0.177583 -31.4837 -33l-0.3125 -335h-63.7188v800zM115.312 536c-26.333 -0.116116 -26.3438 -1.99596 -26.3438 -31.9267l7.12723e-09 -0.0732553v-239c0 -32.999 0.0361328 -33 31.9688 -33h80.0625
c31.7105 0 31.875 0.000956404 31.875 30.0451l-1.80809e-05 0.954887v241l1.48866e-08 0.0936128c0 31.9064 -0.0155945 31.9064 -31.9688 31.9064h-79.9688c-1.33268 0 -2.60764 0.00347222 -3.83008 0.00347222c-0.61122 0 -1.20931 -0.000868056 -1.79492 -0.00347222z
" />
    <glyph glyph-name="s" unicode="s" horiz-adv-x="306" 
d="M88.9375 600h127.812c31.9648 0 63.9375 -32 63.9375 -64l0.3125 -96h-63.9062v63.875c-0.105469 32.124 -0.09375 32.125 -32.0879 32.125h-0.00585938h-63.8125c-31.9619 0 -31.9688 0 -31.9688 -32v-192v-48c0 -32 0.00683594 -32 31.9688 -32h95.5625
c31.9648 0 63.9375 -32 63.9375 -64v-304c0 -32 -31.9727 -64 -63.9375 -64h-127.812c-31.9648 0 -63.9375 32 -63.9375 64l0.3125 96h63.9062l-0.21875 -64c0 -32 0.0166016 -31.999 33.0938 -32h63.0625c31.9648 0 31.9688 0 31.9688 32v32v48v160
c0 31.999 -0.00390625 32 -31.9629 32h-0.00585938h-96.2188c-31.9648 0 -63.9375 32 -63.9375 64v304c0 32 31.9727 64 63.9375 64z" />
    <glyph glyph-name="t" unicode="t" horiz-adv-x="308" 
d="M10 600h288v-64h-112v-736h-64v736h-112v64z" />
    <glyph glyph-name="u" unicode="u" horiz-adv-x="306" 
d="M25 600h64v-704c0 -31.998 0.209961 -32 31.9883 -32h0.0117188h64h0.0117188c31.7803 0 31.9883 0.00195312 31.9883 32v704h64v-736c-0.347656 -31.998 -31.9746 -64 -64 -64h-48h-80c-32.0254 0 -64 32 -64 64v736z" />
    <glyph glyph-name="v" unicode="v" horiz-adv-x="372" 
d="M10 600h64l112 -632l112 632h64l-144 -800h-64z" />
    <glyph glyph-name="x" unicode="x" horiz-adv-x="370" 
d="M25 600h64l96 -368l96 368h64l-96 -416l96 -384h-64l-96 336l-96 -336h-64l96 384z" />
    <glyph glyph-name="y" unicode="y" horiz-adv-x="352" 
d="M0 600h64l112 -368l112 368h64l-144 -480v-64v-256h-64v256v64z" />
    <glyph glyph-name="z" unicode="z" horiz-adv-x="306" 
d="M25 600h160h96l-169 -736h169v-64h-192h-64l169 736h-169v64z" />
    <glyph glyph-name="braceleft" unicode="{" horiz-adv-x="242" 
d="M89 600h128v-64h-128v-347v-15v-310h128v-64h-128h-0.0302734c-31.9902 0 -63.9697 32.0098 -63.9697 64v288l63 25l-63 39v323v0.00292969c0 28.999 32.001 60.9971 64 60.9971z" />
    <glyph glyph-name="bar" unicode="|" horiz-adv-x="114" 
d="M25 600h64v-800h-64v800z" />
    <glyph glyph-name="braceright" unicode="}" horiz-adv-x="242" 
d="M153 600c31.999 0 64 -31.998 64 -60.9971v-0.00292969v-323l-63 -39l63 -25v-288c0 -31.9902 -31.9795 -64 -63.9697 -64h-0.0302734h-128v64h128v310v15v347h-128v64h128z" />
    <glyph glyph-name="asciitilde" unicode="~" horiz-adv-x="402" 
d="M147 270l109 -41l121 27v-64l-121 -27l-109 41l-122 -41v64z" />
    <glyph glyph-name="space" unicode=" " horiz-adv-x="160" 
 />
    </font>
</defs>
</svg>
