<?xml version="1.0" standalone="no"?>
<!DOCTYPE svg PUBLIC "-//W3C//DTD SVG 1.1//EN" "http://www.w3.org/Graphics/SVG/1.1/DTD/svg11.dtd" >
<svg xmlns="http://www.w3.org/2000/svg">
<metadata></metadata>
<defs>
<font id="forsythemedium" horiz-adv-x="671" >
<font-face units-per-em="2048" ascent="1638" descent="-410" />
<missing-glyph horiz-adv-x="450" />
<glyph horiz-adv-x="2048" />
<glyph horiz-adv-x="2048" />
<glyph unicode="&#xd;" horiz-adv-x="2048" />
<glyph unicode=" "  horiz-adv-x="450" />
<glyph unicode="&#x09;" horiz-adv-x="450" />
<glyph unicode="&#xa0;" horiz-adv-x="450" />
<glyph unicode="!" horiz-adv-x="278" d="M51 -115v1344h197v-1344h-197zM51 -213h197v-197h-197v197z" />
<glyph unicode="&#x22;" horiz-adv-x="638" d="M41 819v410h223v-410h-223zM375 819v410h223v-410h-223z" />
<glyph unicode="#" horiz-adv-x="835" d="M41 115v196h98v197h-98v197h98v524h197v-524h164v524h196v-524h99v-197h-99v-197h99v-196h-99v-525h-196v525h-164v-525h-197v525h-98zM336 311h164v197h-164v-197z" />
<glyph unicode="$" d="M41 -115l1 197h196v-66q0 -49 7.5 -57t53.5 -8h70q49 0 57 7.5t8 57.5v66v98v66q0 49 -8 57t-57 8h-197q-49 0 -90 41t-41 90v492q0 49 41 90t90 41h66v164h196v-164h66q52 -13 91 -48.5t39 -82.5l1 -197h-197v72q0 45 -8 52t-57 7h-66q-49 0 -57 -8t-8 -57v-98v-132 q0 -49 8 -57t57 -8h197q49 0 89.5 -41t40.5 -90v-492q0 -49 -40.5 -90t-89.5 -41h-66v-164h-196v164h-66q-49 0 -90 41t-41 90z" />
<glyph unicode="%" horiz-adv-x="638" d="M41 -410l360 1639h197l-360 -1639h-197zM41 1032v197h197v-197h-197zM401 -213h197v-197h-197v197z" />
<glyph unicode="&#x26;" horiz-adv-x="737" d="M41 -279v590l131 66l-131 131v590q0 50 40.5 90.5t90.5 40.5h328v-197h-199q-47 0 -55 -8t-8 -57v-459h163v98h197v-98h98v-197h-98v-590q0 -49 -41 -90t-90 -41h-295q-50 0 -90.5 41t-40.5 90zM238 -144q0 -52 8 -60.5t57 -8.5h33q49 0 57 8t8 58v458h-163v-455z" />
<glyph unicode="'" horiz-adv-x="346" d="M62 819v410h223v-410h-223z" />
<glyph unicode="(" horiz-adv-x="505" d="M61 -279v1383q0 45 41.5 85t90.5 40h262v-197h-132h-1q-48 0 -56 -8t-8 -56v-1v-1114q0 -49 8 -57.5t58 -8.5h131v-197h-262q-50 0 -91 41t-41 90z" />
<glyph unicode=")" horiz-adv-x="495" d="M51 -213h131q49 0 57.5 8.5t8.5 58.5v2v1107v2q0 50 -8.5 58.5t-57.5 8.5h-131v197h262q49 0 90 -40t41 -85v-1383q0 -49 -41 -90t-90 -41h-262v197z" />
<glyph unicode="*" horiz-adv-x="540" d="M41 934l98 65l-98 66l65 98l99 -65v131h133l-2 -131l98 65l66 -98l-99 -66l99 -65l-66 -98l-98 65l2 -131h-133v131l-99 -65z" />
<glyph unicode="+" horiz-adv-x="802" d="M41 328v180h270v270h181v-270h270v-180h-270v-271h-181v271h-270z" />
<glyph unicode="," horiz-adv-x="376" d="M41 -188l295 73v-221l-295 -74v222z" />
<glyph unicode="-" horiz-adv-x="636" d="M41 319v197h557v-197h-557z" />
<glyph unicode="." horiz-adv-x="278" d="M41 -213h197v-197h-197v197z" />
<glyph unicode="/" horiz-adv-x="638" d="M41 -410l360 1639h197l-360 -1639h-197z" />
<glyph unicode="0" horiz-adv-x="638" d="M41 -279v1377q0 50 40.5 90.5t90.5 40.5h164h131q49 0 90 -40.5t41 -90.5v-1377q0 -49 -41 -90t-90 -41h-131h-164q-50 0 -90.5 41t-40.5 90zM238 -147q0 -49 8 -57.5t57 -8.5h33q49 0 57 8.5t8 57.5v1114v6q0 44 -8.5 51.5t-55.5 7.5h-1h-33h-8h-4q-39 0 -46 -8t-7 -51 v-6v-1114z" />
<glyph unicode="1" horiz-adv-x="376" d="M41 1032v197h98h197v-1639h-197v1442h-98z" />
<glyph unicode="2" horiz-adv-x="573" d="M41 377q0 49 41 90t90 41h98q48 0 57 7.5t9 50.5v7l-1 213v197v2q0 36 -8 41.5t-57 5.5h-229v197h361q49 0 89.5 -41t40.5 -90v-672q0 -48 -40 -81.5t-90 -33.5h-99q-49 0 -57 -8t-8 -57l-1 -377q0 -61 8.5 -71.5t57.5 -10.5h229v-197h-360q-48 0 -89 48.5t-41 99.5z" />
<glyph unicode="3" horiz-adv-x="573" d="M41 -213h295v524h-295v197h295v524h-295v197h360q49 0 90 -40.5t41 -90.5v-590l-131 -131l131 -66v-590q0 -49 -41 -90t-90 -41h-360v197z" />
<glyph unicode="4" horiz-adv-x="638" d="M41 311v918h197v-721h163v721h197v-1639h-197v721h-360z" />
<glyph unicode="5" horiz-adv-x="573" d="M41 -213h230q49 0 57 8t8 57v1v65v197v131q0 49 -8 57t-57 8h-99q-49 0 -90 41t-41 90v787h491v-197h-294v-262v-197q0 -49 8.5 -57t57.5 -8h97q49 0 90 -41t41 -90v-656q0 -49 -41 -90t-90 -41h-360v197z" />
<glyph unicode="6" horiz-adv-x="638" d="M41 -279v1508h196l1 -721h229q49 0 90 -41t41 -90v-656q0 -49 -41 -90t-90 -41h-295q-50 0 -90.5 41t-40.5 90zM237 -147q0 -49 8.5 -57.5t56.5 -8.5h1h33q49 0 57 8t8 57v1v395v2q0 46 -8 53.5t-57 7.5h-33h-8h-4q-40 0 -47 -9.5t-7 -57.5v-391z" />
<glyph unicode="7" horiz-adv-x="577" d="M11 1036v193h546v-1639h-193v1446h-353z" />
<glyph unicode="8" horiz-adv-x="638" d="M41 -279v590l131 66l-131 131v590q2 50 42 90.5t89 40.5h295q49 0 90 -40.5t41 -90.5l-1 -590l-131 -131l132 -66v-590q0 -49 -41 -90t-90 -41h-295q-50 0 -90.5 41t-40.5 90zM237 983q0 -2 0.5 -7.5t0.5 -8.5v-392q0 -51 8 -59t57 -8h32q49 0 57.5 8t8.5 55v396 q0 49 -7.5 57t-57.5 8h-33h-8h-4q-37 0 -45.5 -7.5t-8.5 -41.5zM238 -147v-3q0 -47 8 -55t57 -8h33q49 0 57 8t8 58v395q0 47 -8.5 55t-57.5 8h-32h-8h-4q-39 0 -46 -8.5t-7 -54.5v-4v-391z" />
<glyph unicode="9" horiz-adv-x="638" d="M41 442v656q0 50 40.5 90.5t90.5 40.5h295q49 0 90 -40.5t41 -90.5v-1508h-196l-1 721h-229q-50 0 -90.5 40.5t-40.5 90.5zM238 569q0 -46 8 -53.5t57 -7.5h33q49 0 57.5 8.5t8.5 58.5v392q0 49 -8.5 57t-56.5 8h-1h-33h-8h-3q-40 0 -47 -9t-7 -56v-396v-2z" />
<glyph unicode=":" horiz-adv-x="319" d="M61 -47v360h197v-360h-197zM61 510v360h197v-360h-197z" />
<glyph unicode=";" horiz-adv-x="278" d="M41 311h197v-721h-197v721zM41 508v360h197v-360h-197z" />
<glyph unicode="&#x3c;" horiz-adv-x="737" d="M41 307v197l655 688v-295l-491 -491l491 -492v-295z" />
<glyph unicode="=" horiz-adv-x="638" d="M41 123v196h557v-196h-557zM41 516v197h557v-197h-557z" />
<glyph unicode="&#x3e;" horiz-adv-x="737" d="M41 -84l491 492l-491 491v295l655 -688v-197l-655 -688v295z" />
<glyph unicode="?" horiz-adv-x="606" d="M61 -115v488q0 52 41 93.5t91 41.5h131q48 0 54.5 7.5t10.5 57.5v213v197v2q0 36 -8 41.5t-57 5.5h-263v197h394q49 0 90 -41t41 -90v-672q0 -48 -40 -81.5t-91 -33.5h-131q-49 0 -57.5 -8t-8.5 -57v-361h-197zM61 -213h197v-197h-197v197z" />
<glyph unicode="@" horiz-adv-x="942" d="M61 -279v1377q0 49 41 90t90 41h556q49 0 91 -41t42 -90v-1016q0 -49 -41.5 -90t-91.5 -41h-260q-49 0 -90 41t-41 90l-1 557q0 49 41 90t89 41h196v197q0 5 -1 15q-3 38 -10.5 44t-52.5 6h-1h-294h-2q-47 0 -55 -7.5t-8 -51.5v-6v-1114q0 -49 8 -57.5t57 -8.5h558 l-2 -197h-687q-49 0 -90 41t-41 90zM553 508l1 -295q0 -49 4 -57.5t29 -8.5h65q22 0 27 6.5t5 38.5v21l-1 295q0 49 -7.5 57t-56.5 8h-2h-8h-3q-37 0 -45 -7t-8 -41v-17z" />
<glyph unicode="A" horiz-adv-x="868" d="M41 -410l295 1639h196l295 -1639h-196l-79 492h-236l-78 -492h-197zM342 246h184l-92 508z" />
<glyph unicode="B" horiz-adv-x="737" d="M41 -410v1639h524q49 0 90 -40.5t41 -90.5v-590l-131 -131l131 -66v-590q0 -49 -41 -90t-90 -41h-524zM237 983q0 -2 0.5 -7.5t0.5 -8.5v-392q0 -51 8 -59t57 -8h131q49 0 57.5 8t8.5 55v396q0 49 -8 57t-58 8h-131h-8h-4q-37 0 -45.5 -7.5t-8.5 -41.5zM238 -147v-3 q0 -47 8 -55t57 -8h131q50 0 58 8.5t8 57.5v395q0 47 -8 55t-58 8h-131h-8h-4q-39 0 -46 -8.5t-7 -54.5v-4v-391z" />
<glyph unicode="C" d="M41 -279v1377q0 49 41 90t90 41h328q50 0 90.5 -40.5t40.5 -90.5v-197h-197v131h-131q-49 0 -57 -8t-8 -58v-1113q0 -49 7.5 -57.5t55.5 -8.5h2h131v131h197v-197q0 -49 -40.5 -90t-90.5 -41h-328q-50 0 -90.5 41t-40.5 90z" />
<glyph unicode="D" d="M41 -410v1639h459q50 0 90.5 -40.5t40.5 -90.5v-1377q0 -49 -40.5 -90t-90.5 -41h-459zM237 -147q0 -49 7.5 -57.5t53.5 -8.5h71q49 0 57 8t8 57v1v1114v6q0 44 -8 51.5t-56 7.5h-2h-65h-9h-4q-37 0 -45 -6.5t-8 -38.5v-20v-1114z" />
<glyph unicode="E" horiz-adv-x="606" d="M41 -410v1639h524v-197h-327v-524h327v-197h-327v-524h327v-197h-524z" />
<glyph unicode="F" horiz-adv-x="606" d="M41 -410v1639h524v-197h-327v-524h327v-197h-327v-721h-197z" />
<glyph unicode="G" horiz-adv-x="704" d="M41 -279v1377q0 49 41 90t90 41h360q50 0 91 -41t41 -90v-197h-197v131h-164q-49 0 -57 -8t-8 -58v-1113q0 -49 7.5 -57.5t55.5 -8.5h2h164v524h-131v197h328v-787q0 -49 -41 -90t-91 -41h-360q-50 0 -90.5 41t-40.5 90z" />
<glyph unicode="H" d="M41 -410v1639h197v-721h196v721h197v-1639h-197v721h-196v-721h-197z" />
<glyph unicode="I" horiz-adv-x="278" d="M41 -410v1639h197v-1639h-197z" />
<glyph unicode="J" horiz-adv-x="638" d="M41 246h197v-393q0 -49 8 -57.5t57 -8.5h38q45 0 52.5 8t7.5 56v2v1376h197v-1508q0 -49 -41 -90t-90 -41h-295q-50 0 -90.5 41t-40.5 90v525z" />
<glyph unicode="K" horiz-adv-x="704" d="M41 -410v1639h197v-232v-30v-99v-327q0 -25 4 -29t28 -4h168q22 0 25.5 4t3.5 29v327v99v262h197l-1 -721l-132 -131l133 -66l-1 -721h-197l1 689q0 25 -4 28.5t-29 3.5h-164q-25 0 -28.5 -3.5t-3.5 -28.5l-1 -689h-196z" />
<glyph unicode="L" horiz-adv-x="540" d="M41 -410v1639h197v-1442h262v-197h-459z" />
<glyph unicode="M" horiz-adv-x="802" d="M41 -410v1639h131l230 -721l229 721h131v-1639h-197v951l-164 -492l-163 492v-951h-197z" />
<glyph unicode="N" horiz-adv-x="802" d="M41 -410v1639h197l327 -1114v1114h197v-1639h-197l-328 1115l1 -1115h-197z" />
<glyph unicode="O" d="M41 -279v1377q0 50 40.5 90.5t90.5 40.5h328q50 0 90.5 -40.5t40.5 -90.5v-1377q0 -49 -40.5 -90t-90.5 -41h-328q-50 0 -90.5 41t-40.5 90zM238 -147v-1q0 -49 7 -57t53 -8h71q49 0 57 8t8 57v1v1114v6q0 44 -8 51.5t-56 7.5h-1h-66h-8h-4q-37 0 -45 -6.5t-8 -38.5v-20 v-1114z" />
<glyph unicode="P" horiz-adv-x="747" d="M41 -410v1639h524q49 0 90 -40.5t41 -90.5v-656q0 -50 -41 -90.5t-90 -40.5h-327l-1 -721h-196zM237 575q0 -50 8.5 -58.5t57.5 -8.5h168q20 2 24 13t4 50v396q0 49 -8 57t-57 8h-131q-6 0 -15 0.5t-12 0.5h-3q-2 0 -4 -0.5t-3 -0.5q-20 -2 -24.5 -14t-4.5 -51v-392z" />
<glyph unicode="Q" horiz-adv-x="704" d="M41 -279v1377q0 50 40.5 90.5t90.5 40.5h229h131q50 0 91 -41t41 -90v-1377q0 -49 -41 -90t-91 -41h-131h-229q-50 0 -90.5 41t-40.5 90zM238 -147q0 -49 8 -57.5t57 -8.5h98q49 0 57.5 8.5t8.5 57.5v229h-98v197h98v688v6q0 44 -8.5 51.5t-55.5 7.5h-2h-98h-8h-4 q-39 0 -46 -8t-7 -51v-6v-1114z" />
<glyph unicode="R" horiz-adv-x="757" d="M51 -410v1639h525q50 0 90.5 -40.5t40.5 -90.5l-1 -590l-131 -131l131 -66v-721h-197l1 658v4q0 44 -9 51.5t-57 7.5h-131q-46 0 -55.5 -7t-9.5 -44v-16l-1 -654h-196zM248 575q0 -51 8 -59t57 -8h168q20 2 24.5 13.5t4.5 49.5v396q0 49 -8.5 57t-57.5 8h-131 q-6 0 -15 0.5t-12 0.5h-2q-2 0 -4.5 -0.5t-3.5 -0.5q-20 -2 -24 -13.5t-4 -51.5v-392z" />
<glyph unicode="S" d="M41 -279l1 197h196v-65q0 -49 8.5 -57.5t59.5 -8.5h63q49 0 57 8.5t8 57.5v65v197v131q0 49 -8 57t-57 8h-197q-49 0 -90 41t-41 90v656q0 49 41 90t90 41h327q49 0 90 -41t41 -90l1 -197h-197v66q0 49 -8 57t-57 8h-66q-49 0 -57 -8t-8 -57v-197v-197q0 -49 8 -57t57 -8 h196q49 0 90 -41t41 -90v-656q0 -49 -41 -90t-90 -41h-327q-49 0 -90 41t-41 90z" />
<glyph unicode="T" horiz-adv-x="583" d="M0 1034v195h584v-195h-195v-1444h-194v1444h-195z" />
<glyph unicode="U" d="M41 -279v1508h197v-1376q0 -49 8 -57.5t57 -8.5h66q49 0 57 8.5t8 57.5v1376h197v-1508q0 -49 -40.5 -90t-90.5 -41h-131h-197q-50 0 -90.5 41t-40.5 90z" />
<glyph unicode="V" horiz-adv-x="868" d="M41 1229h197l196 -1229l197 1229h196l-295 -1639h-196z" />
<glyph unicode="W" horiz-adv-x="823" d="M51 -410v1639h197v-950l164 491l163 -491v950h197v-1639h-131l-229 721l-230 -721h-131z" />
<glyph unicode="X" horiz-adv-x="802" d="M41 -410l197 787l-197 852h197l163 -688l164 688h197l-197 -852l197 -787h-197l-164 590l-163 -590h-197z" />
<glyph unicode="Y" horiz-adv-x="786" d="M0 1229h197l196 -721l197 721h196l-294 -983v-131v-525h-197v525v131z" />
<glyph unicode="Z" d="M41 -410l346 1442h-346v197h393h197l-346 -1442h346v-197h-393h-197z" />
<glyph unicode="[" horiz-adv-x="495" d="M61 -410v1639h394v-197h-197v-1245h197v-197h-394z" />
<glyph unicode="\" horiz-adv-x="638" d="M41 1229h197l360 -1639h-197z" />
<glyph unicode="]" horiz-adv-x="495" d="M41 -213h197v1245h-197v197h393v-1639h-393v197z" />
<glyph unicode="^" horiz-adv-x="747" d="M41 795l256 434h154l256 -434h-154l-180 280l-178 -280h-154z" />
<glyph unicode="_" horiz-adv-x="901" d="M41 -213h819v-197h-819v197z" />
<glyph unicode="`" horiz-adv-x="376" d="M41 1229h197l98 -361h-197z" />
<glyph unicode="a" horiz-adv-x="868" d="M41 -410l295 1639h196l295 -1639h-196l-79 492h-236l-78 -492h-197zM342 246h184l-92 508z" />
<glyph unicode="b" horiz-adv-x="737" d="M41 -410v1639h524q49 0 90 -40.5t41 -90.5v-590l-131 -131l131 -66v-590q0 -49 -41 -90t-90 -41h-524zM237 983q0 -2 0.5 -7.5t0.5 -8.5v-392q0 -51 8 -59t57 -8h131q49 0 57.5 8t8.5 55v396q0 49 -8 57t-58 8h-131h-8h-4q-37 0 -45.5 -7.5t-8.5 -41.5zM238 -147v-3 q0 -47 8 -55t57 -8h131q50 0 58 8.5t8 57.5v395q0 47 -8 55t-58 8h-131h-8h-4q-39 0 -46 -8.5t-7 -54.5v-4v-391z" />
<glyph unicode="c" d="M41 -279v1377q0 49 41 90t90 41h328q50 0 90.5 -40.5t40.5 -90.5v-197h-197v131h-131q-49 0 -57 -8t-8 -58v-1113q0 -49 7.5 -57.5t55.5 -8.5h2h131v131h197v-197q0 -49 -40.5 -90t-90.5 -41h-328q-50 0 -90.5 41t-40.5 90z" />
<glyph unicode="d" d="M41 -410v1639h459q50 0 90.5 -40.5t40.5 -90.5v-1377q0 -49 -40.5 -90t-90.5 -41h-459zM237 -147q0 -49 7.5 -57.5t53.5 -8.5h71q49 0 57 8t8 57v1v1114v6q0 44 -8 51.5t-56 7.5h-2h-65h-9h-4q-37 0 -45 -6.5t-8 -38.5v-20v-1114z" />
<glyph unicode="e" horiz-adv-x="606" d="M41 -410v1639h524v-197h-327v-524h327v-197h-327v-524h327v-197h-524z" />
<glyph unicode="f" horiz-adv-x="606" d="M41 -410v1639h524v-197h-327v-524h327v-197h-327v-721h-197z" />
<glyph unicode="g" horiz-adv-x="704" d="M41 -279v1377q0 49 41 90t90 41h360q50 0 91 -41t41 -90v-197h-197v131h-164q-49 0 -57 -8t-8 -58v-1113q0 -49 7.5 -57.5t55.5 -8.5h2h164v524h-131v197h328v-787q0 -49 -41 -90t-91 -41h-360q-50 0 -90.5 41t-40.5 90z" />
<glyph unicode="h" d="M41 -410v1639h197v-721h196v721h197v-1639h-197v721h-196v-721h-197z" />
<glyph unicode="i" horiz-adv-x="278" d="M41 -410v1639h197v-1639h-197z" />
<glyph unicode="j" horiz-adv-x="638" d="M41 246h197v-393q0 -49 8 -57.5t57 -8.5h38q45 0 52.5 8t7.5 56v2v1376h197v-1508q0 -49 -41 -90t-90 -41h-295q-50 0 -90.5 41t-40.5 90v525z" />
<glyph unicode="k" horiz-adv-x="704" d="M41 -410v1639h197v-232v-30v-99v-327q0 -25 4 -29t28 -4h168q22 0 25.5 4t3.5 29v327v99v262h197l-1 -721l-132 -131l133 -66l-1 -721h-197l1 689q0 25 -4 28.5t-29 3.5h-164q-25 0 -28.5 -3.5t-3.5 -28.5l-1 -689h-196z" />
<glyph unicode="l" horiz-adv-x="540" d="M41 -410v1639h197v-1442h262v-197h-459z" />
<glyph unicode="m" horiz-adv-x="802" d="M41 -410v1639h131l230 -721l229 721h131v-1639h-197v951l-164 -492l-163 492v-951h-197z" />
<glyph unicode="n" horiz-adv-x="802" d="M41 -410v1639h197l327 -1114v1114h197v-1639h-197l-328 1115l1 -1115h-197z" />
<glyph unicode="o" d="M41 -279v1377q0 50 40.5 90.5t90.5 40.5h328q50 0 90.5 -40.5t40.5 -90.5v-1377q0 -49 -40.5 -90t-90.5 -41h-328q-50 0 -90.5 41t-40.5 90zM238 -147v-1q0 -49 7 -57t53 -8h71q49 0 57 8t8 57v1v1114v6q0 44 -8 51.5t-56 7.5h-1h-66h-8h-4q-37 0 -45 -6.5t-8 -38.5v-20 v-1114z" />
<glyph unicode="p" horiz-adv-x="747" d="M41 -410v1639h524q49 0 90 -40.5t41 -90.5v-656q0 -50 -41 -90.5t-90 -40.5h-327l-1 -721h-196zM237 575q0 -50 8.5 -58.5t57.5 -8.5h168q20 2 24 13t4 50v396q0 49 -8 57t-57 8h-131q-6 0 -15 0.5t-12 0.5h-3q-2 0 -4 -0.5t-3 -0.5q-20 -2 -24.5 -14t-4.5 -51v-392z" />
<glyph unicode="q" horiz-adv-x="704" d="M41 -279v1377q0 50 40.5 90.5t90.5 40.5h229h131q50 0 91 -41t41 -90v-1377q0 -49 -41 -90t-91 -41h-131h-229q-50 0 -90.5 41t-40.5 90zM238 -147q0 -49 8 -57.5t57 -8.5h98q49 0 57.5 8.5t8.5 57.5v229h-98v197h98v688v6q0 44 -8.5 51.5t-55.5 7.5h-2h-98h-8h-4 q-39 0 -46 -8t-7 -51v-6v-1114z" />
<glyph unicode="r" horiz-adv-x="757" d="M51 -410v1639h525q50 0 90.5 -40.5t40.5 -90.5l-1 -590l-131 -131l131 -66v-721h-197l1 658v4q0 44 -9 51.5t-57 7.5h-131q-46 0 -55.5 -7t-9.5 -44q0 -2 1 -7.5t1 -8.5l-1 -654h-198zM248 575q0 -51 8 -59t57 -8h168q20 2 24.5 13.5t4.5 49.5v396q0 49 -8.5 57t-57.5 8 h-131q-6 0 -15 0.5t-12 0.5h-2q-2 0 -4.5 -0.5t-3.5 -0.5q-20 -2 -24 -13.5t-4 -51.5v-392z" />
<glyph unicode="s" d="M41 -279l1 197h196v-65q0 -49 8.5 -57.5t59.5 -8.5h63q49 0 57 8.5t8 57.5v65v197v131q0 49 -8 57t-57 8h-197q-49 0 -90 41t-41 90v656q0 49 41 90t90 41h327q49 0 90 -41t41 -90l1 -197h-197v66q0 49 -8 57t-57 8h-66q-49 0 -57 -8t-8 -57v-197v-197q0 -49 8 -57t57 -8 h196q49 0 90 -41t41 -90v-656q0 -49 -41 -90t-90 -41h-327q-49 0 -90 41t-41 90z" />
<glyph unicode="t" horiz-adv-x="583" d="M0 1034v195h584v-195h-195v-1444h-194v1444h-195z" />
<glyph unicode="u" d="M41 -279v1508h197v-1376q0 -49 8 -57.5t57 -8.5h66q49 0 57 8.5t8 57.5v1376h197v-1508q0 -49 -40.5 -90t-90.5 -41h-131h-197q-50 0 -90.5 41t-40.5 90z" />
<glyph unicode="v" horiz-adv-x="868" d="M41 1229h197l196 -1229l197 1229h196l-295 -1639h-196z" />
<glyph unicode="w" horiz-adv-x="823" d="M51 -410v1639h197v-950l164 491l163 -491v950h197v-1639h-131l-229 721l-230 -721h-131z" />
<glyph unicode="x" horiz-adv-x="802" d="M41 -410l197 787l-197 852h197l163 -688l164 688h197l-197 -852l197 -787h-197l-164 590l-163 -590h-197z" />
<glyph unicode="y" horiz-adv-x="786" d="M0 1229h197l196 -721l197 721h196l-294 -983v-131v-525h-197v525v131z" />
<glyph unicode="z" d="M41 -410l346 1442h-346v197h393h197l-346 -1442h346v-197h-393h-197z" />
<glyph unicode="{" horiz-adv-x="475" d="M41 -279v590l131 66l-131 131v596q0 45 41 85t90 40h262v-197h-196v-1245h196v-197h-262q-50 0 -90.5 41t-40.5 90z" />
<glyph unicode="|" horiz-adv-x="319" d="M61 -410v1639h197v-1639h-197z" />
<glyph unicode="}" horiz-adv-x="475" d="M41 -213h197v1245h-197v197h262q49 0 90 -40t41 -85v-596l-131 -131l131 -66v-590q0 -49 -41 -90t-90 -41h-262v197z" />
<glyph unicode="~" horiz-adv-x="802" d="M41 319v166l250 84l221 -84l250 56v-166l-250 -56l-221 84z" />
<glyph unicode="&#xad;" horiz-adv-x="636" d="M41 319v197h557v-197h-557z" />
<glyph unicode="&#x2000;" horiz-adv-x="682" />
<glyph unicode="&#x2001;" horiz-adv-x="1365" />
<glyph unicode="&#x2002;" horiz-adv-x="682" />
<glyph unicode="&#x2003;" horiz-adv-x="1365" />
<glyph unicode="&#x2004;" horiz-adv-x="455" />
<glyph unicode="&#x2005;" horiz-adv-x="341" />
<glyph unicode="&#x2006;" horiz-adv-x="227" />
<glyph unicode="&#x2007;" horiz-adv-x="227" />
<glyph unicode="&#x2008;" horiz-adv-x="170" />
<glyph unicode="&#x2009;" horiz-adv-x="273" />
<glyph unicode="&#x200a;" horiz-adv-x="75" />
<glyph unicode="&#x2010;" horiz-adv-x="636" d="M41 319v197h557v-197h-557z" />
<glyph unicode="&#x2011;" horiz-adv-x="636" d="M41 319v197h557v-197h-557z" />
<glyph unicode="&#x2012;" horiz-adv-x="636" d="M41 319v197h557v-197h-557z" />
<glyph unicode="&#x2013;" horiz-adv-x="1103" d="M41 319v197h1024v-197h-1024z" />
<glyph unicode="&#x2014;" horiz-adv-x="2127" d="M41 319v197h2048v-197h-2048z" />
<glyph unicode="&#x202f;" horiz-adv-x="273" />
<glyph unicode="&#x205f;" horiz-adv-x="341" />
<glyph unicode="&#xe000;" horiz-adv-x="1228" d="M0 0v1229h1229v-1229h-1229z" />
</font>
</defs>
</svg>
