<?xml version="1.0" standalone="no"?>
<!DOCTYPE svg PUBLIC "-//W3C//DTD SVG 1.1//EN" "http://www.w3.org/Graphics/SVG/1.1/DTD/svg11.dtd" >
<svg xmlns="http://www.w3.org/2000/svg">
<metadata></metadata>
<defs>
<font id="forsythebook" horiz-adv-x="647" >
<font-face units-per-em="2048" ascent="1638" descent="-410" />
<missing-glyph horiz-adv-x="450" />
<glyph horiz-adv-x="2048" />
<glyph horiz-adv-x="2048" />
<glyph unicode="&#xd;" horiz-adv-x="2048" />
<glyph unicode=" "  horiz-adv-x="450" />
<glyph unicode="&#x09;" horiz-adv-x="450" />
<glyph unicode="&#xa0;" horiz-adv-x="450" />
<glyph unicode="!" horiz-adv-x="253" d="M61 -147v1376h132v-1376h-132zM61 -246h132v-164h-132v164z" />
<glyph unicode="&#x22;" horiz-adv-x="483" d="M61 934v295h132v-295h-132zM291 934v295h131v-295h-131z" />
<glyph unicode="#" horiz-adv-x="876" d="M61 147v132h132v262h-132v131h132v557h131v-557h229v557h131v-557h131v-131h-131v-262h131v-132h-131v-557h-131v557h-229v-557h-131v557h-132zM324 279h229v262h-229v-262z" />
<glyph unicode="$" horiz-adv-x="581" d="M61 -82l1 197h131v-131q0 -50 8.5 -58t60.5 -8h62q49 0 57 8t8 58v65v98v99q0 49 -8 57t-57 8h-131q-49 0 -90.5 41t-41.5 90v459q0 49 41.5 90t90.5 41h32v197h131v-197h33q49 0 89.5 -41t40.5 -90l1 -196h-131v131q0 50 -7.5 57.5t-57.5 7.5h-66q-50 0 -57.5 -7.5 t-7.5 -57.5v-230v-98q0 -50 8 -58t57 -8h131q49 0 89.5 -41t40.5 -90v-393q0 -49 -40.5 -90t-89.5 -41h-33v-197h-131v197h-32q-49 0 -90.5 41t-41.5 90z" />
<glyph unicode="%" horiz-adv-x="581" d="M61 -410l328 1639h131l-327 -1639h-132zM61 1032v197h132v-197h-132zM389 -213h131v-197h-131v197z" />
<glyph unicode="&#x26;" horiz-adv-x="712" d="M61 -279v590l132 66l-132 65v656q0 49 41 90t91 41h294v-131h-231q-47 0 -55 -8t-8 -58v-590h229v164h131v-164h98v-131h-98v-590q0 -49 -40.5 -90t-90.5 -41h-229q-50 0 -91 41t-41 90zM193 -209q0 -52 8 -61t57 -9h98q50 0 58 8.5t8 57.5v524h-229v-520z" />
<glyph unicode="'" horiz-adv-x="253" d="M61 934v295h132v-295h-132z" />
<glyph unicode="(" horiz-adv-x="450" d="M61 -279v1383q0 45 41.5 85t90.5 40h196v-131h-132h-1q-47 0 -55 -8t-8 -56v-2v-1245q0 -50 8 -58t57 -8h131v-131h-196q-50 0 -91 41t-41 90z" />
<glyph unicode=")" horiz-adv-x="450" d="M61 -279h132q49 0 57 8.5t8 59.5v1v1239v1q0 51 -8 59.5t-57 8.5h-132v131h197q49 0 90 -40t41 -85v-1383q0 -49 -40.5 -90t-90.5 -41h-197v131z" />
<glyph unicode="*" horiz-adv-x="516" d="M61 967l132 65l-132 66l33 65l131 -65v131h68l-2 -131l131 65l33 -65l-131 -66l131 -65l-33 -66l-131 66l2 -131h-68v131l-131 -66z" />
<glyph unicode="+" horiz-adv-x="843" d="M61 352v131h295v295h131v-295h295v-131h-295v-295h-131v295h-295z" />
<glyph unicode="," horiz-adv-x="319" d="M61 -475l197 65v-163l-197 -66v164z" />
<glyph unicode="-" horiz-adv-x="679" d="M61 311v131h557v-131h-557z" />
<glyph unicode="." horiz-adv-x="253" d="M61 -246h132v-164h-132v164z" />
<glyph unicode="/" horiz-adv-x="612" d="M61 -410l361 1639h129l-361 -1639h-129z" />
<glyph unicode="0" horiz-adv-x="614" d="M61 -279v1377q0 49 41 90t91 41h229q50 0 90.5 -40.5t40.5 -90.5v-1377q0 -49 -40.5 -90t-90.5 -41h-229q-50 0 -91 41t-41 90zM193 -213q0 -49 8 -57.5t57 -8.5h98q49 0 57.5 8.5t8.5 57.5v1245v6q0 44 -8.5 52t-55.5 8h-2h-98h-8h-4q-39 0 -46 -8.5t-7 -51.5v-6v-1245z " />
<glyph unicode="1" horiz-adv-x="352" d="M61 1098v131h99h131v-1639h-131v1508h-99z" />
<glyph unicode="2" horiz-adv-x="548" d="M61 311q0 49 41 90t90 41h99q44 0 55 5.5t11 33.5q0 16 -1 27v278v263v1q0 36 -8 42t-57 6h-230v131h296q49 0 90 -41t41 -90v-672q0 -48 -40 -81.5t-91 -33.5h-99q-49 0 -57 -8t-8 -57l-1 -443q0 -61 8.5 -71.5t57.5 -10.5h230l-1 -131h-294q-48 0 -89.5 48.5 t-41.5 99.5z" />
<glyph unicode="3" horiz-adv-x="548" d="M61 -279h295v590h-295v131h295v656h-295v131h295q50 0 90.5 -40.5t40.5 -90.5v-656l-98 -65l98 -66v-590q0 -49 -40.5 -90t-90.5 -41h-295v131z" />
<glyph unicode="4" horiz-adv-x="614" d="M61 311v918h132v-787h229v787h131v-1639h-131v721h-361z" />
<glyph unicode="5" horiz-adv-x="548" d="M61 -279h230q49 0 57.5 8.5t8.5 57.5v459q0 49 -8.5 57t-57.5 8h-99q-49 0 -90 41t-41 90v787h426v-131h-294v-328v-262q0 -49 8.5 -57.5t57.5 -8.5h97q49 0 90 -41t41 -90v-590q0 -49 -41 -90t-90 -41h-295v131z" />
<glyph unicode="6" horiz-adv-x="614" d="M61 -279v1508h131l1 -787h229q50 0 90.5 -41t40.5 -90v-590q0 -49 -40.5 -90t-90.5 -41h-229q-50 0 -91 41t-41 90zM192 -213q0 -49 8.5 -57.5t56.5 -8.5h1h98q49 0 57.5 8.5t8.5 57.5v461v2q0 46 -8.5 53.5t-57.5 7.5h-98h-8h-4q-40 0 -47 -9.5t-7 -57.5v-457z" />
<glyph unicode="7" horiz-adv-x="667" d="M61 1100v129h547v-1639h-129v1510h-418z" />
<glyph unicode="8" d="M61 -279v590l132 66l-132 65v656q2 50 42.5 90.5t89.5 40.5h262q49 0 90 -40.5t41 -90.5v-656l-100 -65l100 -66v-590q0 -53 -26 -92t-73 -39h-294q-50 0 -91 41t-41 90zM192 1048q0 -2 0.5 -7.5t0.5 -8.5v-522q0 -51 8 -59.5t57 -8.5h130q49 0 58 8.5t9 55.5v526 q0 50 -8.5 58t-57.5 8h-131h-8h-4q-37 0 -45.5 -8t-8.5 -42zM193 -213v-3q0 -47 8 -55t57 -8h131q49 0 57.5 8.5t8.5 57.5v461q0 47 -8.5 55t-58.5 8h-130h-8h-4q-39 0 -46 -8.5t-7 -54.5v-4v-457z" />
<glyph unicode="9" horiz-adv-x="614" d="M61 442v656q0 50 40.5 90.5t90.5 40.5h230q50 0 90.5 -40.5t40.5 -90.5v-1508h-131v721h-229q-50 0 -91 41t-41 90zM193 504q0 -46 8 -54t57 -8h98q49 0 57.5 9t8.5 59v522q0 49 -8 57.5t-56 8.5h-2h-98h-8h-3q-40 0 -47 -9.5t-7 -56.5v-526v-2z" />
<glyph unicode=":" horiz-adv-x="253" d="M61 -82v295h132v-295h-132zM61 606v295h132v-295h-132z" />
<glyph unicode=";" horiz-adv-x="253" d="M61 213h132v-623h-132v623zM61 606v295h132v-295h-132z" />
<glyph unicode="&#x3c;" horiz-adv-x="712" d="M61 311v131l590 623v-164l-491 -524l491 -459v-164z" />
<glyph unicode="=" horiz-adv-x="679" d="M61 180v131h557v-131h-557zM61 442v131h557v-131h-557z" />
<glyph unicode="&#x3e;" horiz-adv-x="712" d="M61 -82l492 459l-492 524v164l590 -623v-131l-590 -557v164z" />
<glyph unicode="?" horiz-adv-x="581" d="M61 -147v454q0 52 41 93.5t91 41.5h131q48 0 56.5 7.5t8.5 51.5v7v278v263v1q0 36 -8 42t-57 6h-263v131h328q49 0 90 -41t41 -90v-672q0 -48 -40 -81.5t-90 -33.5h-132q-49 0 -57 -8t-8 -57v-393h-132zM61 -246h132v-164h-132v164z" />
<glyph unicode="@" horiz-adv-x="778" d="M61 -279v1377q0 49 41 90t90 41h392q49 0 90 -41t41 -90l2 -1016q0 -49 -40.5 -90t-88.5 -41h-167q-49 0 -90 41t-41 90v557q0 49 41 90t90 41h163v262v7q0 44 -8 51.5t-56 7.5h-1h-262h-1q-47 0 -55.5 -8t-8.5 -52v-6v-1245q0 -49 8 -57.5t57 -8.5h460l-2 -131h-523 q-49 0 -90 41t-41 90zM421 147q0 -49 8 -57t57 -8h33q49 0 57 8t8 57v426v6q0 44 -8.5 52t-55.5 8h-1h-33h-8h-4q-39 0 -46 -8t-7 -51v-7v-426z" />
<glyph unicode="A" horiz-adv-x="843" d="M61 -410l263 1639h196l262 -1639h-131l-79 557h-301l-78 -557h-132zM297 246h250l-125 819z" />
<glyph unicode="B" horiz-adv-x="710" d="M61 -410v1639h459q50 0 90.5 -40.5t40.5 -90.5v-623l-98 -65l98 -66v-623q0 -49 -40.5 -90t-90.5 -41h-459zM192 -213v-3q0 -47 8.5 -55t57.5 -8h197q49 0 57 8t8 58v494q0 47 -8 55t-58 8h-196h-8h-4q-39 0 -46.5 -9t-7.5 -55v-4v-489zM192 543q0 -51 8.5 -59.5 t57.5 -8.5h196q49 0 57.5 8.5t8.5 55.5v493q0 50 -8 58t-57 8h-197h-8h-4q-37 0 -45.5 -8t-8.5 -42v-16v-489z" />
<glyph unicode="C" d="M61 -279v1377q0 49 41 90t90 41h1h262q49 0 90 -40.5t41 -90.5v-131h-131v131h-197q-49 0 -57 -8t-8 -58v-1245q0 -49 8 -57.5t56 -8.5h1h197v197h131v-197q0 -49 -41 -90t-90 -41h-262q-50 0 -91 41t-41 90z" />
<glyph unicode="D" d="M61 -410v1639h394q49 0 90 -40.5t41 -90.5v-1377q0 -49 -41 -90t-90 -41h-394zM192 -213q0 -49 7.5 -57.5t53.5 -8.5h136q49 0 57 8.5t8 57.5v1245v6q0 44 -8.5 52t-55.5 8h-1h-131h-9h-4q-37 0 -45 -6.5t-8 -38.5v-21v-1245z" />
<glyph unicode="E" horiz-adv-x="614" d="M61 -410v1639h492v-131h-360v-623h360v-131h-360v-623h360v-131h-492z" />
<glyph unicode="F" horiz-adv-x="614" d="M61 -410v1639h492v-131h-360v-623h360v-131h-360v-557v-197h-132z" />
<glyph unicode="G" horiz-adv-x="679" d="M61 -279v1377q0 49 41 90t90 41h1h294q49 0 90 -40.5t41 -90.5v-197h-131v197h-229q-49 0 -57 -8t-8 -58v-1245q0 -49 8 -57.5t56 -8.5h1h229v623h-131v131h262v-754q0 -49 -41 -90t-90 -41h-294q-50 0 -91 41t-41 90z" />
<glyph unicode="H" horiz-adv-x="630" d="M61 -410v1639h132v-754h245v754h131v-1639h-131v754h-245v-754h-132z" />
<glyph unicode="I" horiz-adv-x="253" d="M61 -410v1639h132v-1639h-132z" />
<glyph unicode="J" horiz-adv-x="614" d="M61 49h132v-262q0 -49 8 -57.5t57 -8.5h103q45 0 53 8t8 56v2v1442h131v-1508q0 -54 -25.5 -92.5t-72.5 -38.5h-262q-50 0 -91 41t-41 90v328z" />
<glyph unicode="K" horiz-adv-x="712" d="M61 -410v1639h132v-721q0 -25 3.5 -29t28.5 -4h230q25 0 28.5 4t3.5 29l33 721h131l-33 -721l-65 -66l98 -65l-1 -787h-131l1 721q0 25 -4 29t-29 4h-262q-25 0 -28.5 -4t-3.5 -29l-2 -721h-130z" />
<glyph unicode="L" horiz-adv-x="581" d="M61 -410v1639h132v-1508h327v-131h-459z" />
<glyph unicode="M" horiz-adv-x="778" d="M61 -410v1639h99l229 -787l229 787h99v-1639h-131v1049l-197 -524l-196 524v-1049h-132z" />
<glyph unicode="N" horiz-adv-x="778" d="M61 -410v1639h132l393 -1278v1278h131v-1639h-131l-394 1278l1 -1278h-132z" />
<glyph unicode="O" horiz-adv-x="679" d="M61 -279v1377q0 49 41 90t91 41h229h65q49 0 90 -40.5t41 -90.5v-1377q0 -49 -41 -90t-90 -41h-65h-229q-50 0 -91 41t-41 90zM193 -213q0 -49 8 -57.5t57 -8.5h164q49 0 57 8.5t8 57.5v1245v6q0 44 -8.5 52t-55.5 8h-1h-164h-8h-4q-39 0 -46 -8.5t-7 -51.5v-6v-1245z " />
<glyph unicode="P" horiz-adv-x="712" d="M61 -410v1639h459q50 0 90.5 -40.5t40.5 -90.5v-623q0 -49 -40.5 -90t-90.5 -41h-327l-1 -754h-131zM192 543q0 -51 8.5 -59.5t57.5 -8.5h233q20 2 24.5 14t4.5 50v493q0 49 -8.5 57.5t-57.5 8.5h-196h-27h-3h-7q-20 -2 -24.5 -14t-4.5 -52v-489z" />
<glyph unicode="Q" horiz-adv-x="679" d="M61 -279v1377q0 49 41 90t91 41h229h65q49 0 90 -40.5t41 -90.5v-1377q0 -49 -41 -90t-90 -41h-65h-229q-50 0 -91 41t-41 90zM193 -213q0 -49 8 -57.5t57 -8.5h164q49 0 57 8.5t8 57.5v426h-98v131h98v688v6q0 44 -8.5 52t-55.5 8h-1h-164h-8h-4q-39 0 -46 -8.5 t-7 -51.5v-6v-1245z" />
<glyph unicode="R" d="M61 -410v1639h394q49 0 90 -40.5t41 -90.5l-1 -623l-98 -65l99 -66l-1 -754h-131l1 691v4q0 44 -8.5 51.5t-57.5 7.5h-131q-46 0 -56 -7t-10 -44q0 -2 0.5 -8t0.5 -9l-1 -686h-131zM192 543q0 -50 8.5 -59t57.5 -9h168q20 2 24 13.5t4 50.5v493q0 49 -8 57.5t-57 8.5 h-131h-27h-3h-7q-20 -2 -24.5 -14t-4.5 -52v-489z" />
<glyph unicode="S" d="M61 -279l1 197h131v-131q0 -50 8 -58t59 -8h129q49 0 57.5 8.5t8.5 57.5v66v98v328q0 49 -8.5 57t-57.5 8h-197q-49 0 -90 41t-41 90v623q0 49 41 90t90 41h262q49 0 90 -41t41 -90l1 -197h-131v131q0 50 -8.5 58t-57.5 8h-131q-49 0 -57 -8t-8 -58v-393v-98 q0 -49 8 -57.5t57 -8.5h196q49 0 90 -41t41 -90v-623q0 -49 -41 -90t-90 -41h-262q-49 0 -90 41t-41 90z" />
<glyph unicode="T" horiz-adv-x="712" d="M61 1098v131h590v-131h-229v-1508h-131v1508h-230z" />
<glyph unicode="U" d="M61 -279v1508h132v-1442q0 -49 8 -57.5t57 -8.5h131q49 0 57.5 8.5t8.5 57.5v1442h131v-1508q-1 -50 -41.5 -90.5t-89.5 -40.5h-99h-163q-50 0 -91 41t-41 90z" />
<glyph unicode="V" horiz-adv-x="843" d="M61 1229h132l229 -1295l229 1295h131l-295 -1639h-131z" />
<glyph unicode="W" horiz-adv-x="778" d="M61 -410v1639h132v-1049l196 525l197 -525v1049h131v-1639h-99l-229 787l-229 -787h-99z" />
<glyph unicode="X" horiz-adv-x="778" d="M61 -410l197 787l-197 852h132l196 -754l197 754h131l-197 -852l197 -787h-131l-197 689l-196 -689h-132z" />
<glyph unicode="Y" horiz-adv-x="843" d="M61 1229h132l229 -754l229 754h131l-295 -983v-131v-525h-131v525v131z" />
<glyph unicode="Z" d="M61 -410l347 1508h-347v131h328h197l-346 -1508h346v-131h-393h-132z" />
<glyph unicode="[" horiz-adv-x="417" d="M61 -410v1639h295v-131h-163v-1377h163v-131h-295z" />
<glyph unicode="\" horiz-adv-x="612" d="M61 1229h129l361 -1639h-129z" />
<glyph unicode="]" horiz-adv-x="417" d="M61 -279h164v1377h-164v131h295v-1639h-295v131z" />
<glyph unicode="^" horiz-adv-x="868" d="M61 795l279 434h186l281 -434h-156l-217 342l-217 -342h-156zM90 770z" />
<glyph unicode="_" horiz-adv-x="876" d="M61 -279h754v-131h-754v131z" />
<glyph unicode="`" horiz-adv-x="352" d="M61 1229h132l98 -295h-131z" />
<glyph unicode="a" horiz-adv-x="843" d="M61 -410l263 1639h196l262 -1639h-131l-79 557h-301l-78 -557h-132zM297 246h250l-125 819z" />
<glyph unicode="b" horiz-adv-x="710" d="M61 -410v1639h459q50 0 90.5 -40.5t40.5 -90.5v-623l-98 -65l98 -66v-623q0 -49 -40.5 -90t-90.5 -41h-459zM192 -213v-3q0 -47 8.5 -55t57.5 -8h197q49 0 57 8t8 58v494q0 47 -8 55t-58 8h-196h-8h-4q-39 0 -46.5 -9t-7.5 -55v-4v-489zM192 543q0 -51 8.5 -59.5 t57.5 -8.5h196q49 0 57.5 8.5t8.5 55.5v493q0 50 -8 58t-57 8h-197h-8h-4q-37 0 -45.5 -8t-8.5 -42v-16v-489z" />
<glyph unicode="c" d="M61 -279v1377q0 49 41 90t90 41h1h262q49 0 90 -40.5t41 -90.5v-131h-131v131h-197q-49 0 -57 -8t-8 -58v-1245q0 -49 8 -57.5t56 -8.5h1h197v197h131v-197q0 -49 -41 -90t-90 -41h-262q-50 0 -91 41t-41 90z" />
<glyph unicode="d" d="M61 -410v1639h394q49 0 90 -40.5t41 -90.5v-1377q0 -49 -41 -90t-90 -41h-394zM192 -213q0 -49 7.5 -57.5t53.5 -8.5h136q49 0 57 8.5t8 57.5v1245v6q0 44 -8.5 52t-55.5 8h-1h-131h-9h-4q-37 0 -45 -6.5t-8 -38.5v-21v-1245z" />
<glyph unicode="e" horiz-adv-x="614" d="M61 -410v1639h492v-131h-360v-623h360v-131h-360v-623h360v-131h-492z" />
<glyph unicode="f" horiz-adv-x="614" d="M61 -410v1639h492v-131h-360v-623h360v-131h-360v-557v-197h-132z" />
<glyph unicode="g" horiz-adv-x="679" d="M61 -279v1377q0 49 41 90t90 41h1h294q49 0 90 -40.5t41 -90.5v-197h-131v197h-229q-49 0 -57 -8t-8 -58v-1245q0 -49 8 -57.5t56 -8.5h1h229v623h-131v131h262v-754q0 -49 -41 -90t-90 -41h-294q-50 0 -91 41t-41 90z" />
<glyph unicode="h" horiz-adv-x="630" d="M61 -410v1639h132v-754h245v754h131v-1639h-131v754h-245v-754h-132z" />
<glyph unicode="i" horiz-adv-x="253" d="M61 -410v1639h132v-1639h-132z" />
<glyph unicode="j" horiz-adv-x="614" d="M61 49h132v-262q0 -49 8 -57.5t57 -8.5h103q45 0 53 8t8 56v2v1442h131v-1508q0 -54 -25.5 -92.5t-72.5 -38.5h-262q-50 0 -91 41t-41 90v328z" />
<glyph unicode="k" horiz-adv-x="712" d="M61 -410v1639h132v-721q0 -25 3.5 -29t28.5 -4h230q25 0 28.5 4t3.5 29l33 721h131l-33 -721l-65 -66l98 -65l-1 -787h-131l1 721q0 25 -4 29t-29 4h-262q-25 0 -28.5 -4t-3.5 -29l-2 -721h-130z" />
<glyph unicode="l" horiz-adv-x="581" d="M61 -410v1639h132v-1508h327v-131h-459z" />
<glyph unicode="m" horiz-adv-x="778" d="M61 -410v1639h99l229 -787l229 787h99v-1639h-131v1049l-197 -524l-196 524v-1049h-132z" />
<glyph unicode="n" horiz-adv-x="778" d="M61 -410v1639h132l393 -1278v1278h131v-1639h-131l-394 1278l1 -1278h-132z" />
<glyph unicode="o" horiz-adv-x="679" d="M61 -279v1377q0 49 41 90t91 41h229h65q49 0 90 -40.5t41 -90.5v-1377q0 -49 -41 -90t-90 -41h-65h-229q-50 0 -91 41t-41 90zM193 -213q0 -49 8 -57.5t57 -8.5h164q49 0 57 8.5t8 57.5v1245v6q0 44 -8.5 52t-55.5 8h-1h-164h-8h-4q-39 0 -46 -8.5t-7 -51.5v-6v-1245z " />
<glyph unicode="p" horiz-adv-x="712" d="M61 -410v1639h459q50 0 90.5 -40.5t40.5 -90.5v-623q0 -49 -40.5 -90t-90.5 -41h-327l-1 -754h-131zM192 543q0 -51 8.5 -59.5t57.5 -8.5h233q20 2 24.5 14t4.5 50v493q0 49 -8.5 57.5t-57.5 8.5h-196h-27h-3h-7q-20 -2 -24.5 -14t-4.5 -52v-489z" />
<glyph unicode="q" horiz-adv-x="679" d="M61 -279v1377q0 49 41 90t91 41h229h65q49 0 90 -40.5t41 -90.5v-1377q0 -49 -41 -90t-90 -41h-65h-229q-50 0 -91 41t-41 90zM193 -213q0 -49 8 -57.5t57 -8.5h164q49 0 57 8.5t8 57.5v426h-98v131h98v688v6q0 44 -8.5 52t-55.5 8h-1h-164h-8h-4q-39 0 -46 -8.5 t-7 -51.5v-6v-1245z" />
<glyph unicode="r" d="M61 -410v1639h394q49 0 90 -40.5t41 -90.5l-1 -623l-98 -65l99 -66l-1 -754h-131l1 691v4q0 44 -8.5 51.5t-57.5 7.5h-131q-46 0 -56 -7t-10 -44q0 -2 0.5 -8t0.5 -9l-1 -686h-131zM192 543q0 -50 8.5 -59t57.5 -9h168q20 2 24 13.5t4 50.5v493q0 49 -8 57.5t-57 8.5 h-131h-27h-3h-7q-20 -2 -24.5 -14t-4.5 -52v-489z" />
<glyph unicode="s" d="M61 -279l1 197h131v-131q0 -50 8 -58t59 -8h129q49 0 57.5 8.5t8.5 57.5v66v98v328q0 49 -8.5 57t-57.5 8h-197q-49 0 -90 41t-41 90v623q0 49 41 90t90 41h262q49 0 90 -41t41 -90l1 -197h-131v131q0 50 -8.5 58t-57.5 8h-131q-49 0 -57 -8t-8 -58v-393v-98 q0 -49 8 -57.5t57 -8.5h196q49 0 90 -41t41 -90v-623q0 -49 -41 -90t-90 -41h-262q-49 0 -90 41t-41 90z" />
<glyph unicode="t" horiz-adv-x="712" d="M61 1098v131h590v-131h-229v-1508h-131v1508h-230z" />
<glyph unicode="u" d="M61 -279v1508h132v-1442q0 -49 8 -57.5t57 -8.5h131q49 0 57.5 8.5t8.5 57.5v1442h131v-1508q-1 -50 -41.5 -90.5t-89.5 -40.5h-99h-163q-50 0 -91 41t-41 90z" />
<glyph unicode="v" horiz-adv-x="843" d="M61 1229h132l229 -1295l229 1295h131l-295 -1639h-131z" />
<glyph unicode="w" horiz-adv-x="778" d="M61 -410v1639h132v-1049l196 525l197 -525v1049h131v-1639h-99l-229 787l-229 -787h-99z" />
<glyph unicode="x" horiz-adv-x="778" d="M61 -410l197 787l-197 852h132l196 -754l197 754h131l-197 -852l197 -787h-131l-197 689l-196 -689h-132z" />
<glyph unicode="y" horiz-adv-x="843" d="M61 1229h132l229 -754l229 754h131l-295 -983v-131v-525h-131v525v131z" />
<glyph unicode="z" d="M61 -410l347 1508h-347v131h328h197l-346 -1508h346v-131h-393h-132z" />
<glyph unicode="{" horiz-adv-x="516" d="M61 -279v590l129 51l-129 80v662q0 45 41.5 85t90.5 40h262v-131h-262v-711v-31v-635h262v-131h-262h-1q-50 0 -90.5 41t-40.5 90z" />
<glyph unicode="|" horiz-adv-x="253" d="M61 -410v1639h132v-1639h-132z" />
<glyph unicode="}" horiz-adv-x="516" d="M61 -279h263v635v31v711h-263v131h263q49 0 90 -40t41 -85v-662l-129 -80l129 -51v-590q0 -49 -40.5 -90t-90.5 -41h-263v131z" />
<glyph unicode="~" horiz-adv-x="843" d="M61 338v131l250 84l224 -84l247 55v-131l-247 -55l-224 84z" />
<glyph unicode="&#xad;" horiz-adv-x="679" d="M61 311v131h557v-131h-557z" />
<glyph unicode="&#x2000;" horiz-adv-x="682" />
<glyph unicode="&#x2001;" horiz-adv-x="1365" />
<glyph unicode="&#x2002;" horiz-adv-x="682" />
<glyph unicode="&#x2003;" horiz-adv-x="1365" />
<glyph unicode="&#x2004;" horiz-adv-x="455" />
<glyph unicode="&#x2005;" horiz-adv-x="341" />
<glyph unicode="&#x2006;" horiz-adv-x="227" />
<glyph unicode="&#x2007;" horiz-adv-x="227" />
<glyph unicode="&#x2008;" horiz-adv-x="170" />
<glyph unicode="&#x2009;" horiz-adv-x="273" />
<glyph unicode="&#x200a;" horiz-adv-x="75" />
<glyph unicode="&#x2010;" horiz-adv-x="679" d="M61 311v131h557v-131h-557z" />
<glyph unicode="&#x2011;" horiz-adv-x="679" d="M61 311v131h557v-131h-557z" />
<glyph unicode="&#x2012;" horiz-adv-x="679" d="M61 311v131h557v-131h-557z" />
<glyph unicode="&#x2013;" horiz-adv-x="1146" d="M61 311v131h1024v-131h-1024z" />
<glyph unicode="&#x2014;" horiz-adv-x="2170" d="M61 311v131h2048v-131h-2048z" />
<glyph unicode="&#x202f;" horiz-adv-x="273" />
<glyph unicode="&#x205f;" horiz-adv-x="341" />
<glyph unicode="&#xe000;" horiz-adv-x="1228" d="M0 0v1229h1229v-1229h-1229z" />
</font>
</defs>
</svg>
