<?xml version="1.0" encoding="UTF-8" standalone="no"?>
<!-- Created with Inkscape (http://www.inkscape.org/) -->

<svg
   xmlns:dc="http://purl.org/dc/elements/1.1/"
   xmlns:cc="http://creativecommons.org/ns#"
   xmlns:rdf="http://www.w3.org/1999/02/22-rdf-syntax-ns#"
   xmlns:svg="http://www.w3.org/2000/svg"
   xmlns="http://www.w3.org/2000/svg"
   xmlns:sodipodi="http://sodipodi.sourceforge.net/DTD/sodipodi-0.dtd"
   xmlns:inkscape="http://www.inkscape.org/namespaces/inkscape"
   width="1000"
   height="1000"
   id="svg3373"
   version="1.1"
   inkscape:version="0.48.2 r9819"
   sodipodi:docname="at.svg">
  <defs
     id="defs3375" />
  <sodipodi:namedview
     id="base"
     pagecolor="#ffffff"
     bordercolor="#666666"
     borderopacity="1.0"
     inkscape:pageopacity="0.0"
     inkscape:pageshadow="2"
     inkscape:zoom="0.6675"
     inkscape:cx="638.00075"
     inkscape:cy="1127"
     inkscape:document-units="px"
     inkscape:current-layer="layer1"
     showgrid="false"
     showguides="true"
     inkscape:guide-bbox="true"
     inkscape:window-width="1280"
     inkscape:window-height="752"
     inkscape:window-x="0"
     inkscape:window-y="0"
     inkscape:window-maximized="1">
    <sodipodi:guide
       orientation="0,1"
       position="453.98442,199.97922"
       id="guide3381" />
    <inkscape:grid
       type="xygrid"
       id="grid3420"
       empspacing="5"
       visible="true"
       enabled="true"
       snapvisiblegridlinesonly="true" />
  </sodipodi:namedview>
  <metadata
     id="metadata3378">
    <rdf:RDF>
      <cc:Work
         rdf:about="">
        <dc:format>image/svg+xml</dc:format>
        <dc:type
           rdf:resource="http://purl.org/dc/dcmitype/StillImage" />
        <dc:title />
      </cc:Work>
    </rdf:RDF>
  </metadata>
  <g
     inkscape:label="R"
     inkscape:groupmode="layer"
     id="layer1"
     transform="translate(0,-52.362183)">
    <path
       style="font-size:19.0334568px;font-style:normal;font-variant:normal;font-weight:bold;font-stretch:condensed;line-height:125%;letter-spacing:0px;word-spacing:0px;fill:#4d4d4d;fill-opacity:1;stroke:none;display:inline;font-family:Swis721 Cn BT;-inkscape-font-specification:Swis721 Cn BT Bold Condensed"
       d="M 383.84375 0 C 351.89335 0 320 32.000163 320 64 L 320 736 C 320 767.99984 351.89335 800 383.84375 800 L 639 800 L 640 736 L 415.6875 736 C 383.9723 736 383.75 736.002 383.75 704 L 383.75 96 C 383.75 64.0016 383.2187 63.9984 415.6875 64 L 543.3125 64 C 575.7765 63.998 575.21875 64.002 575.21875 96 L 575.21875 224 L 495.5 224 C 464.0008 224 431.65625 256.00016 431.65625 288 L 431.65625 560 C 431.65625 591.99984 463.5752 624 495.5 624 L 577 624 C 608 624 640 592 640 560 L 639 64 C 639 32.000003 607.10505 1.4210855e-14 575.15625 0 L 383.84375 0 z M 521.65625 288 C 523.43583 287.99225 525.31445 287.9999 527.34375 288 L 543.3125 288 C 575.7765 287.998 575.25 288.002 575.25 320 L 575.25 528 C 575.25 560.0016 575.0277 560 543.3125 560 L 527.34375 560 C 495.62855 560 495.4375 560.002 495.4375 528 L 495.4375 320 C 495.4375 290.0015 494.96255 288.11621 521.65625 288 z "
       transform="translate(0,52.362183)"
       id="path4489" />
  </g>
</svg>
