<?xml version="1.0" encoding="UTF-8" standalone="no"?>
<!-- Created with Inkscape (http://www.inkscape.org/) -->

<svg
   xmlns:dc="http://purl.org/dc/elements/1.1/"
   xmlns:cc="http://creativecommons.org/ns#"
   xmlns:rdf="http://www.w3.org/1999/02/22-rdf-syntax-ns#"
   xmlns:svg="http://www.w3.org/2000/svg"
   xmlns="http://www.w3.org/2000/svg"
   xmlns:sodipodi="http://sodipodi.sourceforge.net/DTD/sodipodi-0.dtd"
   xmlns:inkscape="http://www.inkscape.org/namespaces/inkscape"
   width="1000"
   height="1000"
   id="svg3373"
   version="1.1"
   inkscape:version="0.48.2 r9819"
   sodipodi:docname="B.svg">
  <defs
     id="defs3375" />
  <sodipodi:namedview
     id="base"
     pagecolor="#ffffff"
     bordercolor="#666666"
     borderopacity="1.0"
     inkscape:pageopacity="0.0"
     inkscape:pageshadow="2"
     inkscape:zoom="2.1640625"
     inkscape:cx="557.56198"
     inkscape:cy="815.00204"
     inkscape:document-units="px"
     inkscape:current-layer="layer1"
     showgrid="false"
     showguides="true"
     inkscape:guide-bbox="true"
     inkscape:window-width="1280"
     inkscape:window-height="752"
     inkscape:window-x="0"
     inkscape:window-y="0"
     inkscape:window-maximized="1">
    <sodipodi:guide
       orientation="0,1"
       position="453.98442,199.97922"
       id="guide3381" />
    <inkscape:grid
       type="xygrid"
       id="grid3420"
       empspacing="5"
       visible="true"
       enabled="true"
       snapvisiblegridlinesonly="true" />
  </sodipodi:namedview>
  <metadata
     id="metadata3378">
    <rdf:RDF>
      <cc:Work
         rdf:about="">
        <dc:format>image/svg+xml</dc:format>
        <dc:type
           rdf:resource="http://purl.org/dc/dcmitype/StillImage" />
        <dc:title />
      </cc:Work>
    </rdf:RDF>
  </metadata>
  <g
     inkscape:label="R"
     inkscape:groupmode="layer"
     id="layer1"
     transform="translate(0,-52.362183)">
    <path
       style="fill:#4d4d4d;fill-opacity:1;stroke:none;display:inline"
       d="M 320 0 L 320 800 L 543.90625 800 C 575.90625 800 607.90625 768 607.90625 736 L 607.90625 432 L 559.90625 400 L 607.6875 368 L 607.90625 64 C 607.90625 32.000003 575.90625 -0.00016 543.90625 0 L 320 0 z M 410.28125 64 C 412.05621 63.992188 413.94915 64 415.96875 64 L 511.9375 64 C 543.9311 64 543.9375 64 543.9375 96 L 543.9375 337 C 543.9375 367.99984 543.62915 368 511.71875 368 L 415.96875 368 C 383.97515 368 383.96875 367.62864 383.96875 335 L 383.96875 96 C 383.66875 66 383.65684 64.117188 410.28125 64 z M 410.28125 432 C 412.05395 431.99195 413.94915 432 415.96875 432 L 511.71875 432 C 543.71235 432 543.9375 432.00016 543.9375 463 L 543.9375 704 C 543.9375 736 543.9311 736 511.9375 736 L 415.96875 736 C 383.73835 736 383.96875 736 383.96875 704 L 383.96875 465 C 383.96875 434.06205 383.69082 432.12078 410.28125 432 z "
       transform="translate(0,52.362183)"
       id="path9831" />
  </g>
</svg>
