<?xml version="1.0" encoding="UTF-8" standalone="no"?>
<!-- Created with Inkscape (http://www.inkscape.org/) -->

<svg
   xmlns:dc="http://purl.org/dc/elements/1.1/"
   xmlns:cc="http://creativecommons.org/ns#"
   xmlns:rdf="http://www.w3.org/1999/02/22-rdf-syntax-ns#"
   xmlns:svg="http://www.w3.org/2000/svg"
   xmlns="http://www.w3.org/2000/svg"
   xmlns:sodipodi="http://sodipodi.sourceforge.net/DTD/sodipodi-0.dtd"
   xmlns:inkscape="http://www.inkscape.org/namespaces/inkscape"
   width="1000"
   height="1000"
   id="svg3373"
   version="1.1"
   inkscape:version="0.48.2 r9819"
   sodipodi:docname="S.svg">
  <defs
     id="defs3375" />
  <sodipodi:namedview
     id="base"
     pagecolor="#ffffff"
     bordercolor="#666666"
     borderopacity="1.0"
     inkscape:pageopacity="0.0"
     inkscape:pageshadow="2"
     inkscape:zoom="1"
     inkscape:cx="556.37017"
     inkscape:cy="930.84252"
     inkscape:document-units="px"
     inkscape:current-layer="layer1"
     showgrid="false"
     showguides="true"
     inkscape:guide-bbox="true"
     inkscape:window-width="1280"
     inkscape:window-height="752"
     inkscape:window-x="0"
     inkscape:window-y="0"
     inkscape:window-maximized="1">
    <sodipodi:guide
       orientation="0,1"
       position="453.98442,199.97922"
       id="guide3381" />
    <inkscape:grid
       type="xygrid"
       id="grid3420"
       empspacing="5"
       visible="true"
       enabled="true"
       snapvisiblegridlinesonly="true" />
  </sodipodi:namedview>
  <metadata
     id="metadata3378">
    <rdf:RDF>
      <cc:Work
         rdf:about="">
        <dc:format>image/svg+xml</dc:format>
        <dc:type
           rdf:resource="http://purl.org/dc/dcmitype/StillImage" />
        <dc:title />
      </cc:Work>
    </rdf:RDF>
  </metadata>
  <g
     inkscape:label="R"
     inkscape:groupmode="layer"
     id="layer1"
     transform="translate(0,-52.362183)">
    <path
       style="font-size:19.0334568px;font-style:normal;font-variant:normal;font-weight:bold;font-stretch:condensed;line-height:125%;letter-spacing:0px;word-spacing:0px;fill:#4d4d4d;fill-opacity:1;stroke:none;display:inline;font-family:Swis721 Cn BT;-inkscape-font-specification:Swis721 Cn BT Bold Condensed"
       d="M 383.9375 0 C 351.97265 0 320 32.000113 320 64 L 320 368 C 320 400.00005 351.97265 432 383.9375 432 L 480.15625 432 C 512.1211 432 512.125 431.99899 512.125 464 L 512.125 624 L 512.125 672 L 512.125 704 C 512.125 736.00005 512.1211 736 480.15625 736 L 417.09375 736 C 384.01689 735.99936 384 736.00005 384 704 L 384.21875 640 L 320.3125 640 L 320 736 C 320 767.99989 351.97265 800 383.9375 800 L 511.75 800 C 543.71485 800 575.6875 767.99989 575.6875 736 L 575.6875 432 C 575.6875 399.99995 543.71485 367.99984 511.75 368 L 416.1875 368 C 384.22585 368.00016 384.21875 367.99989 384.21875 336 L 384.21875 288 L 384.21875 96 C 384.21875 63.99995 384.22585 64 416.1875 64 L 480 64 C 512.00005 64 511.98815 63.99919 512.09375 96.125 L 512.09375 160 L 576 160 L 575.6875 64 C 575.6875 32.000113 543.71485 9.4739031e-15 511.75 0 L 383.9375 0 z "
       transform="translate(0,52.362183)"
       id="path4400" />
  </g>
</svg>
