<?xml version="1.0" encoding="UTF-8" standalone="no"?>
<!-- Created with Inkscape (http://www.inkscape.org/) -->

<svg
   xmlns:dc="http://purl.org/dc/elements/1.1/"
   xmlns:cc="http://creativecommons.org/ns#"
   xmlns:rdf="http://www.w3.org/1999/02/22-rdf-syntax-ns#"
   xmlns:svg="http://www.w3.org/2000/svg"
   xmlns="http://www.w3.org/2000/svg"
   xmlns:sodipodi="http://sodipodi.sourceforge.net/DTD/sodipodi-0.dtd"
   xmlns:inkscape="http://www.inkscape.org/namespaces/inkscape"
   width="1000"
   height="1000"
   id="svg3373"
   version="1.1"
   inkscape:version="0.48.2 r9819"
   sodipodi:docname="8.svg">
  <defs
     id="defs3375" />
  <sodipodi:namedview
     id="base"
     pagecolor="#ffffff"
     bordercolor="#666666"
     borderopacity="1.0"
     inkscape:pageopacity="0.0"
     inkscape:pageshadow="2"
     inkscape:zoom="1"
     inkscape:cx="485.85347"
     inkscape:cy="311.02353"
     inkscape:document-units="px"
     inkscape:current-layer="layer1"
     showgrid="false"
     showguides="true"
     inkscape:guide-bbox="true"
     inkscape:window-width="1280"
     inkscape:window-height="752"
     inkscape:window-x="0"
     inkscape:window-y="0"
     inkscape:window-maximized="1">
    <sodipodi:guide
       orientation="0,1"
       position="453.98442,199.97922"
       id="guide3381" />
    <inkscape:grid
       type="xygrid"
       id="grid3420"
       empspacing="5"
       visible="true"
       enabled="true"
       snapvisiblegridlinesonly="true" />
  </sodipodi:namedview>
  <metadata
     id="metadata3378">
    <rdf:RDF>
      <cc:Work
         rdf:about="">
        <dc:format>image/svg+xml</dc:format>
        <dc:type
           rdf:resource="http://purl.org/dc/dcmitype/StillImage" />
        <dc:title />
      </cc:Work>
    </rdf:RDF>
  </metadata>
  <g
     inkscape:label="R"
     inkscape:groupmode="layer"
     id="layer1"
     transform="translate(0,-52.362183)">
    <path
       style="fill:#4d4d4d;fill-opacity:1;stroke:none;display:inline"
       d="m 384,0 c -32,0 -63.112,32.012323 -64,64 l 0,288 64,64 -64,32 0,288 c 0,32 32,64 64,64 l 144,0 c 31.9936,0 64,-32.00016 64,-64 L 592,448 528,416 591.5,352 592,64 C 592,32.000163 559.9936,0 528,0 z m 64,96 16,0 c 31.9936,0 32,0 32,32 l 0,193 c 0,30.99984 0,31 -33,31 l -15,0 c -31.9936,0 -32,-0.3712 -32,-33 l 0,-191 c 0,-32 0,-32 32,-32 z m 0,352 15,0 c 33,0 33,1.6e-4 33,31 l 0,193 c 0,32 -0.006,32 -32,32 l -16,0 c -32,0 -32,0 -32,-32 l 0,-191 c 0,-33 0,-33 32,-33 z"
       transform="translate(0,52.362183)"
       id="path4191"
       inkscape:connector-curvature="0"
       sodipodi:nodetypes="sccccssssccccsscsssssscccsssssscc" />
  </g>
</svg>
