<?xml version="1.0" encoding="UTF-8" standalone="no"?>
<!-- Created with Inkscape (http://www.inkscape.org/) -->

<svg
   xmlns:dc="http://purl.org/dc/elements/1.1/"
   xmlns:cc="http://creativecommons.org/ns#"
   xmlns:rdf="http://www.w3.org/1999/02/22-rdf-syntax-ns#"
   xmlns:svg="http://www.w3.org/2000/svg"
   xmlns="http://www.w3.org/2000/svg"
   xmlns:sodipodi="http://sodipodi.sourceforge.net/DTD/sodipodi-0.dtd"
   xmlns:inkscape="http://www.inkscape.org/namespaces/inkscape"
   width="1000"
   height="1000"
   id="svg3373"
   version="1.1"
   inkscape:version="0.48.2 r9819"
   sodipodi:docname="9.svg">
  <defs
     id="defs3375" />
  <sodipodi:namedview
     id="base"
     pagecolor="#ffffff"
     bordercolor="#666666"
     borderopacity="1.0"
     inkscape:pageopacity="0.0"
     inkscape:pageshadow="2"
     inkscape:zoom="1.6743911"
     inkscape:cx="460.39473"
     inkscape:cy="644.64406"
     inkscape:document-units="px"
     inkscape:current-layer="layer1"
     showgrid="true"
     showguides="true"
     inkscape:guide-bbox="true"
     inkscape:window-width="1280"
     inkscape:window-height="752"
     inkscape:window-x="0"
     inkscape:window-y="0"
     inkscape:window-maximized="1">
    <sodipodi:guide
       orientation="0,1"
       position="453.98442,199.97922"
       id="guide3381" />
    <inkscape:grid
       type="xygrid"
       id="grid3420"
       empspacing="5"
       visible="true"
       enabled="true"
       snapvisiblegridlinesonly="true" />
  </sodipodi:namedview>
  <metadata
     id="metadata3378">
    <rdf:RDF>
      <cc:Work
         rdf:about="">
        <dc:format>image/svg+xml</dc:format>
        <dc:type
           rdf:resource="http://purl.org/dc/dcmitype/StillImage" />
        <dc:title />
      </cc:Work>
    </rdf:RDF>
  </metadata>
  <g
     inkscape:label="R"
     inkscape:groupmode="layer"
     id="layer1"
     transform="translate(0,-52.362183)">
    <path
       style="fill:#4d4d4d;fill-opacity:1;stroke:none;display:inline"
       d="M 383.96875 0 C 351.98475 0.00032 320 32.000163 320 64 L 320 384 C 320 416 352 448 384 448 L 496 448 L 496.28125 800 L 592 800 L 592 64 C 592 32.000003 560 0 528 0 L 383.96875 0 z M 442.46875 96 C 444.22568 95.992188 446.09475 96 448.09375 96 L 464.0625 96 C 496.0465 95.99888 496.0625 95.99888 496.0625 128 L 496.0625 319 C 496.0625 351.62864 496.0465 352.001 464.0625 352 L 448 352 C 415.9552 352 416.125 351.9992 416.125 321 L 416.125 128 C 416.125 98 416.11475 96.117188 442.46875 96 z "
       transform="translate(0,52.362183)"
       id="path4209" />
  </g>
</svg>
