<?xml version="1.0" encoding="UTF-8" standalone="no"?>
<!-- Created with Inkscape (http://www.inkscape.org/) -->

<svg
   xmlns:dc="http://purl.org/dc/elements/1.1/"
   xmlns:cc="http://creativecommons.org/ns#"
   xmlns:rdf="http://www.w3.org/1999/02/22-rdf-syntax-ns#"
   xmlns:svg="http://www.w3.org/2000/svg"
   xmlns="http://www.w3.org/2000/svg"
   xmlns:sodipodi="http://sodipodi.sourceforge.net/DTD/sodipodi-0.dtd"
   xmlns:inkscape="http://www.inkscape.org/namespaces/inkscape"
   width="1000"
   height="1000"
   id="svg3373"
   version="1.1"
   inkscape:version="0.48.2 r9819"
   sodipodi:docname="at.svg">
  <defs
     id="defs3375" />
  <sodipodi:namedview
     id="base"
     pagecolor="#ffffff"
     bordercolor="#666666"
     borderopacity="1.0"
     inkscape:pageopacity="0.0"
     inkscape:pageshadow="2"
     inkscape:zoom="1"
     inkscape:cx="597.75285"
     inkscape:cy="389.56072"
     inkscape:document-units="px"
     inkscape:current-layer="layer1"
     showgrid="false"
     showguides="true"
     inkscape:guide-bbox="true"
     inkscape:window-width="1280"
     inkscape:window-height="752"
     inkscape:window-x="0"
     inkscape:window-y="0"
     inkscape:window-maximized="1">
    <sodipodi:guide
       orientation="0,1"
       position="453.98442,199.97922"
       id="guide3381" />
    <inkscape:grid
       type="xygrid"
       id="grid3420"
       empspacing="5"
       visible="true"
       enabled="true"
       snapvisiblegridlinesonly="true" />
  </sodipodi:namedview>
  <metadata
     id="metadata3378">
    <rdf:RDF>
      <cc:Work
         rdf:about="">
        <dc:format>image/svg+xml</dc:format>
        <dc:type
           rdf:resource="http://purl.org/dc/dcmitype/StillImage" />
        <dc:title />
      </cc:Work>
    </rdf:RDF>
  </metadata>
  <g
     inkscape:label="R"
     inkscape:groupmode="layer"
     id="layer1"
     transform="translate(0,-52.362183)">
    <path
       style="font-size:19.0334568px;font-style:normal;font-variant:normal;font-weight:bold;font-stretch:condensed;line-height:125%;letter-spacing:0px;word-spacing:0px;fill:#4d4d4d;fill-opacity:1;stroke:none;display:inline;font-family:Swis721 Cn BT;-inkscape-font-specification:Swis721 Cn BT Bold Condensed"
       d="m 384,52.362183 c -32,0 -64,32 -64,63.999997 l 0,672 c 0,31.99984 32.0496,64 64,64 l 336.00002,0 -2e-5,-96 -271.99959,0 c -32,0 -31.99998,0 -32,-32.00001 L 416,180.36219 c -2e-5,-32 0,-32 32,-32 l 143,0 c 32.464,-0.002 31.92086,-0.001 32,32 l 0,96 -95,0 c -31.4992,0 -64,32.00001 -64,64.00001 l 0,271.99997 c 0,32.00016 32.0752,64 64,64 l 128,0 c 31.9952,0 63.9952,-32 64,-64 l 0,-495.99999 C 720,84.362183 688.8304,52.362183 656,52.362183 z m 192.00001,320.000017 32.00001,0 c 16,0 16,0.002 16,32 l 0,144.00001 c 0,32.00171 -0.003,32.00011 -16,32.00011 l -32.00001,0 c -16,0 -16,0.002 -16,-31.99995 l 0,-144.00017 c 0,-31.99872 0,-32 16,-32 z"
       id="path4243-2"
       inkscape:connector-curvature="0"
       sodipodi:nodetypes="cssccccssccsccssccccccccssssssc" />
  </g>
</svg>
