<?xml version="1.0" encoding="UTF-8" standalone="no"?>
<!-- Created with Inkscape (http://www.inkscape.org/) -->

<svg
   xmlns:dc="http://purl.org/dc/elements/1.1/"
   xmlns:cc="http://creativecommons.org/ns#"
   xmlns:rdf="http://www.w3.org/1999/02/22-rdf-syntax-ns#"
   xmlns:svg="http://www.w3.org/2000/svg"
   xmlns="http://www.w3.org/2000/svg"
   xmlns:sodipodi="http://sodipodi.sourceforge.net/DTD/sodipodi-0.dtd"
   xmlns:inkscape="http://www.inkscape.org/namespaces/inkscape"
   width="1000"
   height="1000"
   id="svg3373"
   version="1.1"
   inkscape:version="0.48.2 r9819"
   sodipodi:docname="at.svg">
  <defs
     id="defs3375" />
  <sodipodi:namedview
     id="base"
     pagecolor="#ffffff"
     bordercolor="#666666"
     borderopacity="1.0"
     inkscape:pageopacity="0.0"
     inkscape:pageshadow="2"
     inkscape:zoom="0.82615231"
     inkscape:cx="521.08454"
     inkscape:cy="726.00791"
     inkscape:document-units="px"
     inkscape:current-layer="layer1"
     showgrid="false"
     showguides="true"
     inkscape:guide-bbox="true"
     inkscape:window-width="1280"
     inkscape:window-height="752"
     inkscape:window-x="0"
     inkscape:window-y="0"
     inkscape:window-maximized="1">
    <sodipodi:guide
       orientation="0,1"
       position="453.98442,199.97922"
       id="guide3381" />
    <inkscape:grid
       type="xygrid"
       id="grid3420"
       empspacing="5"
       visible="true"
       enabled="true"
       snapvisiblegridlinesonly="true" />
  </sodipodi:namedview>
  <metadata
     id="metadata3378">
    <rdf:RDF>
      <cc:Work
         rdf:about="">
        <dc:format>image/svg+xml</dc:format>
        <dc:type
           rdf:resource="http://purl.org/dc/dcmitype/StillImage" />
        <dc:title />
      </cc:Work>
    </rdf:RDF>
  </metadata>
  <g
     inkscape:label="R"
     inkscape:groupmode="layer"
     id="layer1"
     transform="translate(0,-52.362183)">
    <path
       style="font-size:19.0334568px;font-style:normal;font-variant:normal;font-weight:bold;font-stretch:condensed;line-height:125%;letter-spacing:0px;word-spacing:0px;fill:#4d4d4d;fill-opacity:1;stroke:none;display:inline;font-family:Swis721 Cn BT;-inkscape-font-specification:Swis721 Cn BT Bold Condensed"
       d="M 383.84375 0 C 351.89348 0 320 32.000163 320 64 L 320 736 C 320 767.99984 351.89348 800 383.84375 800 L 719 800 L 720 704 L 447.6875 704 C 415.97243 704 415.75 704.002 415.75 672 L 415.75 128 C 415.75 96.0016 415.21883 95.9984 447.6875 96 L 591.3125 96 C 623.77637 95.998 620.93876 96.08 623.21875 128 L 623.21875 224 L 527.5 224 C 496.00093 224 463.58905 256.00016 463.65625 288 L 464.21875 560 C 464.21875 591.99984 496.13783 624 528.0625 624 L 655.28125 624 C 688.00272 624 720 592 720 560 L 720 64 C 720 32.000003 687.10492 1.4210855e-14 655.15625 0 L 383.84375 0 z M 585.65625 320 C 587.433 319.99225 589.31416 319.9999 591.34375 320 C 623.80762 319.998 623.15325 320.002 623.28125 352 L 623.84375 496 C 624.00375 528.00144 624.55923 528 608.5625 528 L 576.5625 528 C 560.56257 528 560.6905 528.001 560.5625 496 L 560 352 C 559.85 322.00165 559.00499 320.11623 585.65625 320 z "
       transform="translate(0,52.362183)"
       id="path4243" />
  </g>
</svg>
