<?xml version="1.0" encoding="UTF-8" standalone="no"?>
<!-- Created with Inkscape (http://www.inkscape.org/) -->

<svg
   xmlns:dc="http://purl.org/dc/elements/1.1/"
   xmlns:cc="http://creativecommons.org/ns#"
   xmlns:rdf="http://www.w3.org/1999/02/22-rdf-syntax-ns#"
   xmlns:svg="http://www.w3.org/2000/svg"
   xmlns="http://www.w3.org/2000/svg"
   xmlns:sodipodi="http://sodipodi.sourceforge.net/DTD/sodipodi-0.dtd"
   xmlns:inkscape="http://www.inkscape.org/namespaces/inkscape"
   width="1000"
   height="1000"
   id="svg3373"
   version="1.1"
   inkscape:version="0.48.2 r9819"
   sodipodi:docname="B.svg">
  <defs
     id="defs3375" />
  <sodipodi:namedview
     id="base"
     pagecolor="#ffffff"
     bordercolor="#666666"
     borderopacity="1.0"
     inkscape:pageopacity="0.0"
     inkscape:pageshadow="2"
     inkscape:zoom="0.4169478"
     inkscape:cx="557.56198"
     inkscape:cy="815.00204"
     inkscape:document-units="px"
     inkscape:current-layer="layer1"
     showgrid="true"
     showguides="true"
     inkscape:guide-bbox="true"
     inkscape:window-width="1280"
     inkscape:window-height="752"
     inkscape:window-x="0"
     inkscape:window-y="0"
     inkscape:window-maximized="1">
    <sodipodi:guide
       orientation="0,1"
       position="453.98442,199.97922"
       id="guide3381" />
    <inkscape:grid
       type="xygrid"
       id="grid3420"
       empspacing="5"
       visible="true"
       enabled="true"
       snapvisiblegridlinesonly="true" />
  </sodipodi:namedview>
  <metadata
     id="metadata3378">
    <rdf:RDF>
      <cc:Work
         rdf:about="">
        <dc:format>image/svg+xml</dc:format>
        <dc:type
           rdf:resource="http://purl.org/dc/dcmitype/StillImage" />
        <dc:title />
      </cc:Work>
    </rdf:RDF>
  </metadata>
  <g
     inkscape:label="R"
     inkscape:groupmode="layer"
     id="layer1"
     transform="translate(0,-52.362183)">
    <path
       style="fill:#4d4d4d;fill-opacity:1;stroke:none;display:inline"
       d="M 320 0 L 320 800 L 575.9375 800 C 607.9311 800 640 767.99989 640 736 L 640 448 L 576 416 L 640 352 L 640 64 C 640 32.000113 608.02485 9.4739031e-15 576.03125 0 L 320 0 z M 442.28125 96 C 444.05621 95.992187 445.94915 96 447.96875 96 L 511.9375 96 C 543.9311 96 543.9375 95.99995 543.9375 128 L 543.9375 321 C 543.9375 351.9999 543.62915 352 511.71875 352 L 447.96875 352 C 415.97515 352 415.96875 351.6287 415.96875 319 L 415.96875 128 C 415.66875 97.999953 415.65684 96.117188 442.28125 96 z M 442.28125 448 C 444.05395 447.99195 445.94915 448 447.96875 448 L 511.71875 448 C 543.71235 448 543.9375 448.00011 543.9375 479 L 543.9375 672 C 543.9375 704.00005 543.9311 704 511.9375 704 L 447.96875 704 C 415.73835 704 415.96875 704.00005 415.96875 672 L 415.96875 481 C 415.96875 450.062 415.69082 448.12078 442.28125 448 z "
       transform="translate(0,52.362183)"
       id="path69733" />
  </g>
</svg>
