<?xml version="1.0" encoding="UTF-8" standalone="no"?>
<!-- Created with Inkscape (http://www.inkscape.org/) -->

<svg
   xmlns:dc="http://purl.org/dc/elements/1.1/"
   xmlns:cc="http://creativecommons.org/ns#"
   xmlns:rdf="http://www.w3.org/1999/02/22-rdf-syntax-ns#"
   xmlns:svg="http://www.w3.org/2000/svg"
   xmlns="http://www.w3.org/2000/svg"
   xmlns:sodipodi="http://sodipodi.sourceforge.net/DTD/sodipodi-0.dtd"
   xmlns:inkscape="http://www.inkscape.org/namespaces/inkscape"
   width="1000"
   height="1000"
   id="svg3373"
   version="1.1"
   inkscape:version="0.48.2 r9819"
   sodipodi:docname="R.svg">
  <defs
     id="defs3375" />
  <sodipodi:namedview
     id="base"
     pagecolor="#ffffff"
     bordercolor="#666666"
     borderopacity="1.0"
     inkscape:pageopacity="0.0"
     inkscape:pageshadow="2"
     inkscape:zoom="0.8338956"
     inkscape:cx="517.28407"
     inkscape:cy="298.78833"
     inkscape:document-units="px"
     inkscape:current-layer="layer1"
     showgrid="false"
     showguides="true"
     inkscape:guide-bbox="true"
     inkscape:window-width="1280"
     inkscape:window-height="752"
     inkscape:window-x="0"
     inkscape:window-y="0"
     inkscape:window-maximized="1">
    <sodipodi:guide
       orientation="0,1"
       position="453.98442,199.97922"
       id="guide3381" />
    <inkscape:grid
       type="xygrid"
       id="grid3420"
       empspacing="5"
       visible="true"
       enabled="true"
       snapvisiblegridlinesonly="true" />
  </sodipodi:namedview>
  <metadata
     id="metadata3378">
    <rdf:RDF>
      <cc:Work
         rdf:about="">
        <dc:format>image/svg+xml</dc:format>
        <dc:type
           rdf:resource="http://purl.org/dc/dcmitype/StillImage" />
        <dc:title />
      </cc:Work>
    </rdf:RDF>
  </metadata>
  <g
     inkscape:label="R"
     inkscape:groupmode="layer"
     id="layer1"
     transform="translate(0,-52.362183)">
    <path
       sodipodi:nodetypes="cssscssccccccscccccssccc"
       inkscape:connector-curvature="0"
       id="path69745"
       d="m 448,148.36219 64,0 c 31.98406,0 32,0 32,32.00006 l 0,193.00003 c 0,30.99925 0.0433,30.9999 -32,30.9999 l -64,-1e-5 c -31.98406,-10e-6 -32,-0.3712 -32,-32.9999 l 0,-191.00002 c 0,-32.00118 0.0159,-32.00118 32,-32.00006 z m -32,383.99958 c -0.32,-32.99991 -0.23783,-31.99942 32.06623,-31.99942 l -0.0662,0 64,0 c 31.98406,0 31.99992,0.99997 32,31.99942 l 0,320.00041 96,0 9.7e-4,-351.99983 L 576,468.36229 640,404.36217 640,116.36214 C 640,84.362243 607.98406,52.362183 576,52.362183 l -256,0 0,799.999997 96.00017,0"
       style="fill:#4d4d4d;fill-opacity:1;stroke:none;display:inline" />
  </g>
</svg>
