<?xml version="1.0" encoding="UTF-8" standalone="no"?>
<!-- Created with Inkscape (http://www.inkscape.org/) -->

<svg
   xmlns:dc="http://purl.org/dc/elements/1.1/"
   xmlns:cc="http://creativecommons.org/ns#"
   xmlns:rdf="http://www.w3.org/1999/02/22-rdf-syntax-ns#"
   xmlns:svg="http://www.w3.org/2000/svg"
   xmlns="http://www.w3.org/2000/svg"
   xmlns:xlink="http://www.w3.org/1999/xlink"
   xmlns:sodipodi="http://sodipodi.sourceforge.net/DTD/sodipodi-0.dtd"
   xmlns:inkscape="http://www.inkscape.org/namespaces/inkscape"
   width="280"
   height="60"
   id="svg4638"
   version="1.1"
   inkscape:version="0.48.2 r9819"
   sodipodi:docname="sprite.svg"
   inkscape:export-filename="/Users/tristen/Desktop/forsythe/images/sprite.png"
   inkscape:export-xdpi="90"
   inkscape:export-ydpi="90">
  <defs
     id="defs4640" />
  <sodipodi:namedview
     id="base"
     pagecolor="#ffffff"
     bordercolor="#666666"
     borderopacity="1.0"
     inkscape:pageopacity="0.0"
     inkscape:pageshadow="2"
     inkscape:zoom="3.049398"
     inkscape:cx="62.826954"
     inkscape:cy="27.193806"
     inkscape:document-units="px"
     inkscape:current-layer="layer1"
     showgrid="false"
     inkscape:window-width="1280"
     inkscape:window-height="752"
     inkscape:window-x="28"
     inkscape:window-y="0"
     inkscape:window-maximized="0">
    <inkscape:grid
       type="xygrid"
       id="grid4750"
       empspacing="5"
       visible="true"
       enabled="true"
       snapvisiblegridlinesonly="true" />
  </sodipodi:namedview>
  <metadata
     id="metadata4643">
    <rdf:RDF>
      <cc:Work
         rdf:about="">
        <dc:format>image/svg+xml</dc:format>
        <dc:type
           rdf:resource="http://purl.org/dc/dcmitype/StillImage" />
        <dc:title />
      </cc:Work>
    </rdf:RDF>
  </metadata>
  <g
     inkscape:label="Layer 1"
     inkscape:groupmode="layer"
     id="layer1"
     transform="translate(0,-992.3622)">
    <rect
       style="color:#000000;fill:#e6e6e6;fill-opacity:1;fill-rule:nonzero;stroke:none;stroke-width:1;marker:none;visibility:visible;display:inline;overflow:visible;enable-background:accumulate"
       id="rect6025"
       width="20"
       height="20"
       x="-25"
       y="992.36218" />
    <path
       style="color:#000000;fill:#4a525a;fill-opacity:1;fill-rule:nonzero;stroke:none;marker:none;visibility:visible;display:inline;overflow:visible;enable-background:accumulate"
       d="m -300,697.36218 0,160 460,-140 0,-160 z"
       id="path6098"
       inkscape:connector-curvature="0"
       inkscape:export-filename="/Users/tristen/Desktop/forsythe/images/slide-two.png"
       inkscape:export-xdpi="90"
       inkscape:export-ydpi="90" />
    <text
       xml:space="preserve"
       style="font-size:71.58522034px;font-style:normal;font-variant:normal;font-weight:normal;font-stretch:normal;line-height:125%;letter-spacing:0px;word-spacing:0px;opacity:0.25;fill:#ffffff;fill-opacity:1;stroke:none;font-family:Sans;-inkscape-font-specification:Helvetica"
       id="text3095"
       sodipodi:linespacing="125%"
       inkscape:export-filename="/Users/tristen/Desktop/forsythe/images/slide-two.png"
       inkscape:export-xdpi="90"
       inkscape:export-ydpi="90"><textPath
         xlink:href="#path3104"
         id="textPath3106"><tspan
   style="font-style:normal;font-variant:normal;font-weight:500;font-stretch:normal;fill:#ffffff;font-family:Forsythe;-inkscape-font-specification:Forsythe Medium"
   id="tspan3097">Apples &amp; Peaches</tspan></textPath></text>
    <path
       style="fill:none;stroke:none"
       d="m -260,772.36218 460,-140"
       id="path3104"
       inkscape:connector-curvature="0" />
    <g
       id="g6755"
       transform="translate(-4.5,97.00002)"
       style="fill:#ffffff;fill-opacity:1">
      <rect
         inkscape:export-ydpi="90"
         inkscape:export-xdpi="90"
         inkscape:export-filename="/Users/tristen/github/hcl-picker/images/handle.png"
         y="904.36218"
         x="11.5"
         height="1.9999974"
         width="2"
         id="rect3789"
         style="color:#000000;fill:#ffffff;fill-opacity:1;fill-rule:nonzero;stroke:none;stroke-width:2;marker:none;visibility:visible;display:inline;overflow:visible;enable-background:accumulate" />
      <rect
         style="color:#000000;fill:#ffffff;fill-opacity:1;fill-rule:nonzero;stroke:none;stroke-width:2;marker:none;visibility:visible;display:inline;overflow:visible;enable-background:accumulate"
         id="rect3795"
         width="2"
         height="1.9999974"
         x="11.5"
         y="908.36218"
         inkscape:export-filename="/Users/tristen/github/hcl-picker/images/handle.png"
         inkscape:export-xdpi="90"
         inkscape:export-ydpi="90" />
      <rect
         style="color:#000000;fill:#ffffff;fill-opacity:1;fill-rule:nonzero;stroke:none;stroke-width:2;marker:none;visibility:visible;display:inline;overflow:visible;enable-background:accumulate"
         id="rect3815"
         width="2"
         height="1.9999974"
         x="15.5"
         y="904.36218"
         inkscape:export-filename="/Users/tristen/github/hcl-picker/images/handle.png"
         inkscape:export-xdpi="90"
         inkscape:export-ydpi="90" />
      <rect
         inkscape:export-ydpi="90"
         inkscape:export-xdpi="90"
         inkscape:export-filename="/Users/tristen/github/hcl-picker/images/handle.png"
         y="908.36218"
         x="15.5"
         height="1.9999974"
         width="2"
         id="rect3817"
         style="color:#000000;fill:#ffffff;fill-opacity:1;fill-rule:nonzero;stroke:none;stroke-width:2;marker:none;visibility:visible;display:inline;overflow:visible;enable-background:accumulate" />
      <rect
         style="color:#000000;fill:#ffffff;fill-opacity:1;fill-rule:nonzero;stroke:none;stroke-width:2;marker:none;visibility:visible;display:inline;overflow:visible;enable-background:accumulate"
         id="rect3821"
         width="2"
         height="1.9999974"
         x="11.5"
         y="900.36218"
         inkscape:export-filename="/Users/tristen/github/hcl-picker/images/handle.png"
         inkscape:export-xdpi="90"
         inkscape:export-ydpi="90" />
      <rect
         inkscape:export-ydpi="90"
         inkscape:export-xdpi="90"
         inkscape:export-filename="/Users/tristen/github/hcl-picker/images/handle.png"
         y="900.36218"
         x="15.5"
         height="1.9999974"
         width="2"
         id="rect3823"
         style="color:#000000;fill:#ffffff;fill-opacity:1;fill-rule:nonzero;stroke:none;stroke-width:2;marker:none;visibility:visible;display:inline;overflow:visible;enable-background:accumulate" />
    </g>
    <g
       style="fill:#444444;fill-opacity:1"
       transform="translate(-4.5,96.00002)"
       id="g6027">
      <rect
         style="color:#000000;fill:#444444;fill-opacity:1;fill-rule:nonzero;stroke:none;stroke-width:2;marker:none;visibility:visible;display:inline;overflow:visible;enable-background:accumulate"
         id="rect6029"
         width="2"
         height="1.9999974"
         x="11.5"
         y="904.36218"
         inkscape:export-filename="/Users/tristen/github/hcl-picker/images/handle.png"
         inkscape:export-xdpi="90"
         inkscape:export-ydpi="90" />
      <rect
         inkscape:export-ydpi="90"
         inkscape:export-xdpi="90"
         inkscape:export-filename="/Users/tristen/github/hcl-picker/images/handle.png"
         y="908.36218"
         x="11.5"
         height="1.9999974"
         width="2"
         id="rect6031"
         style="color:#000000;fill:#444444;fill-opacity:1;fill-rule:nonzero;stroke:none;stroke-width:2;marker:none;visibility:visible;display:inline;overflow:visible;enable-background:accumulate" />
      <rect
         inkscape:export-ydpi="90"
         inkscape:export-xdpi="90"
         inkscape:export-filename="/Users/tristen/github/hcl-picker/images/handle.png"
         y="904.36218"
         x="15.5"
         height="1.9999974"
         width="2"
         id="rect6033"
         style="color:#000000;fill:#444444;fill-opacity:1;fill-rule:nonzero;stroke:none;stroke-width:2;marker:none;visibility:visible;display:inline;overflow:visible;enable-background:accumulate" />
      <rect
         style="color:#000000;fill:#444444;fill-opacity:1;fill-rule:nonzero;stroke:none;stroke-width:2;marker:none;visibility:visible;display:inline;overflow:visible;enable-background:accumulate"
         id="rect6035"
         width="2"
         height="1.9999974"
         x="15.5"
         y="908.36218"
         inkscape:export-filename="/Users/tristen/github/hcl-picker/images/handle.png"
         inkscape:export-xdpi="90"
         inkscape:export-ydpi="90" />
      <rect
         inkscape:export-ydpi="90"
         inkscape:export-xdpi="90"
         inkscape:export-filename="/Users/tristen/github/hcl-picker/images/handle.png"
         y="900.36218"
         x="11.5"
         height="1.9999974"
         width="2"
         id="rect6037"
         style="color:#000000;fill:#444444;fill-opacity:1;fill-rule:nonzero;stroke:none;stroke-width:2;marker:none;visibility:visible;display:inline;overflow:visible;enable-background:accumulate" />
      <rect
         style="color:#000000;fill:#444444;fill-opacity:1;fill-rule:nonzero;stroke:none;stroke-width:2;marker:none;visibility:visible;display:inline;overflow:visible;enable-background:accumulate"
         id="rect6039"
         width="2"
         height="1.9999974"
         x="15.5"
         y="900.36218"
         inkscape:export-filename="/Users/tristen/github/hcl-picker/images/handle.png"
         inkscape:export-xdpi="90"
         inkscape:export-ydpi="90" />
    </g>
    <rect
       style="color:#000000;fill:#ffffff;fill-opacity:1;fill-rule:nonzero;stroke:none;stroke-width:1;marker:none;visibility:visible;display:inline;overflow:visible;enable-background:accumulate"
       id="rect7228"
       width="1"
       height="1"
       x="31"
       y="995.36218" />
    <rect
       y="995.36218"
       x="31"
       height="1"
       width="1"
       id="rect7230"
       style="color:#000000;fill:#ffffff;fill-opacity:1;fill-rule:nonzero;stroke:none;stroke-width:1;marker:none;visibility:visible;display:inline;overflow:visible;enable-background:accumulate" />
    <rect
       style="color:#000000;fill:#ffffff;fill-opacity:1;fill-rule:nonzero;stroke:none;stroke-width:1;marker:none;visibility:visible;display:inline;overflow:visible;enable-background:accumulate"
       id="rect7232"
       width="1"
       height="1"
       x="30"
       y="996.36218" />
    <rect
       y="997.36218"
       x="29"
       height="1"
       width="1"
       id="rect7234"
       style="color:#000000;fill:#ffffff;fill-opacity:1;fill-rule:nonzero;stroke:none;stroke-width:1;marker:none;visibility:visible;display:inline;overflow:visible;enable-background:accumulate" />
    <rect
       style="color:#000000;fill:#ffffff;fill-opacity:1;fill-rule:nonzero;stroke:none;stroke-width:1;marker:none;visibility:visible;display:inline;overflow:visible;enable-background:accumulate"
       id="rect7236"
       width="1"
       height="1"
       x="28"
       y="998.36218" />
    <rect
       y="999.36218"
       x="27"
       height="1"
       width="1"
       id="rect7238"
       style="color:#000000;fill:#ffffff;fill-opacity:1;fill-rule:nonzero;stroke:none;stroke-width:1;marker:none;visibility:visible;display:inline;overflow:visible;enable-background:accumulate" />
    <rect
       style="color:#000000;fill:#ffffff;fill-opacity:1;fill-rule:nonzero;stroke:none;stroke-width:1;marker:none;visibility:visible;display:inline;overflow:visible;enable-background:accumulate"
       id="rect7240"
       width="1"
       height="1"
       x="26"
       y="1000.3622" />
    <rect
       y="1001.3622"
       x="25"
       height="1"
       width="1"
       id="rect7242"
       style="color:#000000;fill:#ffffff;fill-opacity:1;fill-rule:nonzero;stroke:none;stroke-width:1;marker:none;visibility:visible;display:inline;overflow:visible;enable-background:accumulate" />
    <rect
       style="color:#000000;fill:#ffffff;fill-opacity:1;fill-rule:nonzero;stroke:none;stroke-width:1;marker:none;visibility:visible;display:inline;overflow:visible;enable-background:accumulate"
       id="rect7244"
       width="1"
       height="1"
       x="24"
       y="1002.3622" />
    <rect
       y="1003.3622"
       x="23"
       height="1"
       width="1"
       id="rect7246"
       style="color:#000000;fill:#ffffff;fill-opacity:1;fill-rule:nonzero;stroke:none;stroke-width:1;marker:none;visibility:visible;display:inline;overflow:visible;enable-background:accumulate" />
    <rect
       style="color:#000000;fill:#ffffff;fill-opacity:1;fill-rule:nonzero;stroke:none;stroke-width:1;marker:none;visibility:visible;display:inline;overflow:visible;enable-background:accumulate"
       id="rect7248"
       width="1"
       height="1"
       x="31"
       y="1003.3622" />
    <rect
       y="1002.3622"
       x="30"
       height="1"
       width="1"
       id="rect7250"
       style="color:#000000;fill:#ffffff;fill-opacity:1;fill-rule:nonzero;stroke:none;stroke-width:1;marker:none;visibility:visible;display:inline;overflow:visible;enable-background:accumulate" />
    <rect
       style="color:#000000;fill:#ffffff;fill-opacity:1;fill-rule:nonzero;stroke:none;stroke-width:1;marker:none;visibility:visible;display:inline;overflow:visible;enable-background:accumulate"
       id="rect7252"
       width="1"
       height="1"
       x="29"
       y="1001.3622" />
    <rect
       y="1000.3622"
       x="28"
       height="1"
       width="1"
       id="rect7254"
       style="color:#000000;fill:#ffffff;fill-opacity:1;fill-rule:nonzero;stroke:none;stroke-width:1;marker:none;visibility:visible;display:inline;overflow:visible;enable-background:accumulate" />
    <rect
       style="color:#000000;fill:#ffffff;fill-opacity:1;fill-rule:nonzero;stroke:none;stroke-width:1;marker:none;visibility:visible;display:inline;overflow:visible;enable-background:accumulate"
       id="rect7256"
       width="1"
       height="1"
       x="26"
       y="998.36218" />
    <rect
       y="997.36218"
       x="25"
       height="1"
       width="1"
       id="rect7258"
       style="color:#000000;fill:#ffffff;fill-opacity:1;fill-rule:nonzero;stroke:none;stroke-width:1;marker:none;visibility:visible;display:inline;overflow:visible;enable-background:accumulate" />
    <rect
       style="color:#000000;fill:#ffffff;fill-opacity:1;fill-rule:nonzero;stroke:none;stroke-width:1;marker:none;visibility:visible;display:inline;overflow:visible;enable-background:accumulate"
       id="rect7260"
       width="1"
       height="1"
       x="24"
       y="996.36218" />
    <rect
       y="995.36218"
       x="23"
       height="1"
       width="1"
       id="rect7262"
       style="color:#000000;fill:#ffffff;fill-opacity:1;fill-rule:nonzero;stroke:none;stroke-width:1;marker:none;visibility:visible;display:inline;overflow:visible;enable-background:accumulate" />
    <path
       style="opacity:0.5;color:#000000;fill:#626d75;fill-opacity:1;fill-rule:nonzero;stroke:none;stroke-width:2.54558443999999984;marker:none;visibility:visible;display:inline;overflow:visible;enable-background:accumulate"
       d="m 20,1012.3622 c -11.045678,0 -20,8.9546 -20,20 0,11.0454 8.954322,20 20,20 11.04568,0 20,-8.9546 20,-20 0,-11.0454 -8.95432,-20 -20,-20 z m 0,10 10,6 0,13 -8,0 0,-5 -2,-1 -2,1 0,5 -8,0 0,-13 10,-6 z"
       id="path69677"
       inkscape:connector-curvature="0" />
    <path
       style="opacity:0.5;color:#000000;fill:#626d75;fill-opacity:1;fill-rule:nonzero;stroke:none;stroke-width:2.54558443999999984;marker:none;visibility:visible;display:inline;overflow:visible;enable-background:accumulate"
       d="m 110,1012.3622 c -11.04568,0 -20,8.9546 -20,20 0,11.0454 8.95432,20 20,20 11.04568,0 20,-8.9546 20,-20 0,-11.0454 -8.95432,-20 -20,-20 z m -7.97496,12.1503 c 0.51376,-0.01 1.81728,0.1594 4.07496,1.6994 1.26288,-0.3458 2.65992,-0.5493 4,-0.5493 1.21792,0 2.4072,0.139 3.55,0.4244 2.91712,-1.9523 4.2,-1.5499 4.2,-1.5499 0.73104,1.8281 0.47416,3.2818 0.27504,3.9255 1.13984,1.1375 1.82496,2.6057 1.82496,4.4745 0,1.3034 -0.068,2.4841 -0.35,3.5004 l -0.27496,0.7744 0,0.047 c -0.84064,1.9072 -2.69864,3.1982 -6.5,3.5755 l -5.4,0 c -3.56456,-0.3847 -5.55872,-1.6807 -6.57504,-3.5755 l -0.0496,-0.047 c -0.0995,-0.1965 -0.22,-0.4401 -0.3,-0.6497 l 0,-0.1247 c -0.36152,-1.0136 -0.55,-2.2 -0.55,-3.5004 0,-1.722 0.65544,-3.0993 1.67504,-4.2 -0.16304,-0.3989 -0.71744,-2.0305 0.14992,-4.2 0,0 0.0784,-0.021 0.25008,-0.024 z m 11.57496,7.6246 c -1.0648,0.012 -2.28584,0.1753 -3.57496,0.1754 -1.29496,0 -2.512,-0.1414 -3.57504,-0.1503 -1.06312,-0.01 -1.9756,0.084 -2.65,0.6996 -0.80864,0.7392 -1.27496,1.642 -1.27496,2.6 -1.6e-4,4.0047 3.35608,4.6753 7.5,4.6753 4.14296,0 7.54992,-0.1692 7.54992,-4.6753 1.6e-4,-0.9648 -0.50624,-1.8579 -1.32496,-2.6 -0.67544,-0.6112 -1.5852,-0.7376 -2.65,-0.7247 z m -7.6,2.1004 c 0.57384,0 1.05,0.6722 1.05,1.4996 0,0.8273 -0.47576,1.5004 -1.05,1.5004 -0.57416,0 -1.02504,-0.6731 -1.02504,-1.5004 0,-0.8274 0.45048,-1.4996 1.02504,-1.4996 z m 8.37496,0 c 0.57392,0 1.05,0.6722 1.05008,1.4996 0,0.8273 -0.47576,1.5004 -1.05008,1.5004 -0.57408,0 -1.02496,-0.6731 -1.02496,-1.5004 0,-0.8274 0.45048,-1.4996 1.02496,-1.4996 z"
       id="path69696"
       inkscape:connector-curvature="0"
       sodipodi:nodetypes="sssssccscccscccccccccscccccccccscccsssssscsss" />
    <path
       sodipodi:nodetypes="sssssccccccsscsccscscccccscc"
       inkscape:connector-curvature="0"
       id="path7793"
       d="m 200,1012.3622 c -11.04568,0 -20,8.9546 -20,20 0,11.0454 8.95432,20 20,20 11.04568,0 20,-8.9546 20,-20 0,-11.0454 -8.95432,-20 -20,-20 z m 3.8,12.4753 c 1.18024,0 2.2516,0.4895 3,1.275 0.93456,-0.1816 1.80704,-0.5122 2.6,-0.9754 -0.3064,0.9435 -0.95304,1.7256 -1.8,2.2251 0.82976,-0.097 1.61432,-0.3039 2.35,-0.6251 -0.55016,0.8103 -1.24808,1.5055 -2.05,2.0748 0.0144,0.1737 0.0248,0.3501 0.0248,0.5252 0,5.338 -4.12792,11.5004 -11.67504,11.5004 -2.31728,0 -4.48416,-0.679 -6.3,-1.8256 0.3208,0.036 0.64384,0.072 0.97504,0.072 1.9224,0 3.69568,-0.6414 5.1,-1.7247 -1.79544,-0.031 -3.30296,-1.2208 -3.82504,-2.8252 0.25056,0.045 0.51064,0.072 0.77496,0.072 0.37416,0 0.73072,-0.031 1.07504,-0.1248 -1.87712,-0.3709 -3.3,-2.0178 -3.3,-3.9749 0,-0.016 -2.4e-4,-0.032 0,-0.047 0.55336,0.3023 1.17728,0.4782 1.85,0.5 -1.10096,-0.7243 -1.82504,-1.949 -1.82504,-3.3505 8e-5,-0.7399 0.22192,-1.4278 0.57504,-2.0243 2.02368,2.4435 5.03992,4.0311 8.45,4.2 -0.0696,-0.2963 -0.1,-0.5836 -0.1,-0.9004 0,-2.2305 1.834,-4.0497 4.1,-4.0497 z"
       style="color:#000000;fill:#f3734f;fill-opacity:0.94117647;fill-rule:nonzero;stroke:none;stroke-width:2.54558444;marker:none;visibility:visible;display:inline;overflow:visible;enable-background:accumulate" />
    <path
       sodipodi:nodetypes="sssssccscccscccccccccscccccccccscccsssssscsss"
       inkscape:connector-curvature="0"
       id="path7795"
       d="m 245,1012.3622 c -11.04568,0 -20,8.9546 -20,20 0,11.0454 8.95432,20 20,20 11.04568,0 20,-8.9546 20,-20 0,-11.0454 -8.95432,-20 -20,-20 z m -7.97496,12.1503 c 0.51376,-0.01 1.81728,0.1594 4.07496,1.6994 1.26288,-0.3458 2.65992,-0.5493 4,-0.5493 1.21792,0 2.4072,0.139 3.55,0.4244 2.91712,-1.9523 4.2,-1.5499 4.2,-1.5499 0.73104,1.8281 0.47416,3.2818 0.27504,3.9255 1.13984,1.1375 1.82496,2.6057 1.82496,4.4745 0,1.3034 -0.068,2.4841 -0.35,3.5004 l -0.27496,0.7744 0,0.047 c -0.84064,1.9072 -2.69864,3.1982 -6.5,3.5755 l -5.4,0 c -3.56456,-0.3847 -5.55872,-1.6807 -6.57504,-3.5755 l -0.0496,-0.047 c -0.0995,-0.1965 -0.22,-0.4401 -0.3,-0.6497 l 0,-0.1247 c -0.36152,-1.0136 -0.55,-2.2 -0.55,-3.5004 0,-1.722 0.65544,-3.0993 1.67504,-4.2 -0.16304,-0.3989 -0.71744,-2.0305 0.14992,-4.2 0,0 0.0784,-0.021 0.25008,-0.024 z m 11.57496,7.6246 c -1.0648,0.012 -2.28584,0.1753 -3.57496,0.1754 -1.29496,0 -2.512,-0.1414 -3.57504,-0.1503 -1.06312,-0.01 -1.9756,0.084 -2.65,0.6996 -0.80864,0.7392 -1.27496,1.642 -1.27496,2.6 -1.6e-4,4.0047 3.35608,4.6753 7.5,4.6753 4.14296,0 7.54992,-0.1692 7.54992,-4.6753 1.6e-4,-0.9648 -0.50624,-1.8579 -1.32496,-2.6 -0.67544,-0.6112 -1.5852,-0.7376 -2.65,-0.7247 z m -7.6,2.1004 c 0.57384,0 1.05,0.6722 1.05,1.4996 0,0.8273 -0.47576,1.5004 -1.05,1.5004 -0.57416,0 -1.02504,-0.6731 -1.02504,-1.5004 0,-0.8274 0.45048,-1.4996 1.02504,-1.4996 z m 8.37496,0 c 0.57392,0 1.05,0.6722 1.05008,1.4996 0,0.8273 -0.47576,1.5004 -1.05008,1.5004 -0.57408,0 -1.02496,-0.6731 -1.02496,-1.5004 0,-0.8274 0.45048,-1.4996 1.02496,-1.4996 z"
       style="color:#000000;fill:#f3734f;fill-opacity:0.94117647;fill-rule:nonzero;stroke:none;stroke-width:2.54558444;marker:none;visibility:visible;display:inline;overflow:visible;enable-background:accumulate" />
    <path
       sodipodi:nodetypes="sssssccccccsscsccscscccccscc"
       inkscape:connector-curvature="0"
       id="path8019"
       d="m 65,1012.3622 c -11.045678,0 -20,8.9546 -20,20 0,11.0454 8.954322,20 20,20 11.045678,0 20,-8.9546 20,-20 0,-11.0454 -8.954322,-20 -20,-20 z m 3.8,12.4753 c 1.180242,0 2.2516,0.4895 3,1.275 0.934558,-0.1816 1.807042,-0.5122 2.6,-0.9754 -0.3064,0.9435 -0.953042,1.7256 -1.8,2.2251 0.829758,-0.097 1.614322,-0.3039 2.35,-0.6251 -0.550158,0.8103 -1.248078,1.5055 -2.05,2.0748 0.01442,0.1737 0.02478,0.3501 0.02478,0.5252 0,5.338 -4.127924,11.5004 -11.675042,11.5004 -2.317282,0 -4.484158,-0.679 -6.3,-1.8256 0.3208,0.036 0.643842,0.072 0.975042,0.072 1.9224,0 3.695676,-0.6414 5.1,-1.7247 -1.795442,-0.031 -3.302959,-1.2208 -3.825042,-2.8252 0.250563,0.045 0.510642,0.072 0.774963,0.072 0.374155,0 0.73072,-0.031 1.075037,-0.1248 -1.877117,-0.3709 -3.3,-2.0178 -3.3,-3.9749 0,-0.016 -2.37e-4,-0.032 0,-0.047 0.553363,0.3023 1.177283,0.4782 1.85,0.5 -1.100958,-0.7243 -1.825037,-1.949 -1.825037,-3.3505 7.9e-5,-0.7399 0.22192,-1.4278 0.575037,-2.0243 2.023683,2.4435 5.039918,4.0311 8.45,4.2 -0.06958,-0.2963 -0.1,-0.5836 -0.1,-0.9004 0,-2.2305 1.834,-4.0497 4.1,-4.0497 z"
       style="opacity:0.5;color:#000000;fill:#626d75;fill-opacity:1;fill-rule:nonzero;stroke:none;stroke-width:2.54558443999999984;marker:none;visibility:visible;display:inline;overflow:visible;enable-background:accumulate" />
    <path
       inkscape:connector-curvature="0"
       id="path8022"
       d="m 155,1012.3622 c -11.04568,0 -20,8.9546 -20,20 0,11.0454 8.95432,20 20,20 11.04568,0 20,-8.9546 20,-20 0,-11.0454 -8.95432,-20 -20,-20 z m 0,10 10,6 0,13 -8,0 0,-5 -2,-1 -2,1 0,5 -8,0 0,-13 10,-6 z"
       style="color:#000000;fill:#f3734f;fill-opacity:0.94117647;fill-rule:nonzero;stroke:none;stroke-width:2.54558444;marker:none;visibility:visible;display:inline;overflow:visible;enable-background:accumulate" />
  </g>
</svg>
